<?xml version="1.0" encoding="utf-8"?>
<!-- Generator: Adobe Illustrator 16.0.0, SVG Export Plug-In . SVG Version: 6.00 Build 0)  -->
<!DOCTYPE svg PUBLIC "-//W3C//DTD SVG 1.1//EN" "http://www.w3.org/Graphics/SVG/1.1/DTD/svg11.dtd">
<svg version="1.1" id="Слой_1" xmlns="http://www.w3.org/2000/svg" xmlns:xlink="http://www.w3.org/1999/xlink" x="0px" y="0px"
	 width="153px" height="511px" viewBox="0 0 153 511" enable-background="new 0 0 153 511" xml:space="preserve">
<g>
	<path fill="#FAE7CB" d="M77.602,49.423c1.251,0,3.918,4.338,10.107,9.37c4.248,3.454,15.666,3.645,19.098,1.929
		c2.228-1.112-0.262-8.328,0-9.388c0.953-3.857,10.094-1.628,7.427-6.068c-1.678-2.799-5.163-6.258-2.671-16.106
		c1.809-7.143-3.272-12.245-1.295-14.244C118,7.102,95.619-1.16,81.523,13.511C65.412,30.278,77.602,49.423,77.602,49.423z"/>
	<path fill="#FAE7CB" d="M79.271,84.338c-4.635,7.108,20.658,22.447,23.149,16.164c3.8-9.583-6.772-26.82-5.575-36.858
		c1.063-8.893-12.063-15.955-18.316-12.255C77.116,52.225,84.803,75.846,79.271,84.338z"/>
	<path fill="#FAE7CB" d="M70.307,468.07c0,0,1.729,16.918,0,20.737c-1.729,3.822,11.011,1.5,14.256-0.344
		c3.244-1.845-1.968-14.157,1.213-18.03C88.955,466.565,70.307,468.07,70.307,468.07z"/>
	<path fill="#FAE7CB" d="M108.84,440.726c0,0-2.991,19.807-4.72,23.627c-1.728,3.82,12.486,0.453,15.729-1.393
		c3.246-1.845,1.278-16,4.459-19.871S108.84,440.726,108.84,440.726z"/>
	<linearGradient id="SVGID_1_" gradientUnits="userSpaceOnUse" x1="69.7524" y1="479.1357" x2="80.2383" y2="479.1357">
		<stop  offset="0.2741" style="stop-color:#D0B392"/>
		<stop  offset="0.6941" style="stop-color:#FAE7CB"/>
	</linearGradient>
	<path fill="url(#SVGID_1_)" d="M70.307,468.07c0,0,1.859,3.604,6.764,2.353c4.903-1.248-3.797,15.51,1.848,16.776
		c5.645,1.265-8.607,1.311-9.043,2.923C69.439,491.733,70.307,468.07,70.307,468.07z"/>
	<linearGradient id="SVGID_2_" gradientUnits="userSpaceOnUse" x1="104.998" y1="453.2686" x2="116.7891" y2="453.2686">
		<stop  offset="0.2741" style="stop-color:#D0B392"/>
		<stop  offset="0.6941" style="stop-color:#FAE7CB"/>
	</linearGradient>
	<path fill="url(#SVGID_2_)" d="M108.869,442.003c0,0,1.858,3.6,6.763,2.352c4.903-1.25-7.718,18.59-2.074,19.855
		c5.644,1.265-8.093-1.691-8.528-0.078C104.594,465.742,108.869,442.003,108.869,442.003z"/>
	<path fill="#515586" d="M71.662,202.183c0,0-17.523,38.103-9.677,60.711c8.948,25.781,6.256,45.706,7.913,67.956
		c1.512,20.277-2.084,119.201-2.365,134.572c-0.157,8.608,7.533,10.336,14.85,6.699c3.393-1.688-3.465,1.301,6.236-2.42
		c0,0,4.808-72.931,8.004-92.777c2.363-14.682,8.47-40.303,7.086-50.835c-0.583-4.438-4.614-28.47-4.614-48.175
		c0-24.622-5.897-47.921-5.897-39.774c0,16.387,21.512,72.432,31.037,87.801c5.686,9.178-6.223,37.619-9.909,60.692
		c-3.141,19.655-7.545,38.509-7.545,46.732c0,19.67-2.283,10.928,15.374,14.398c7.324,1.441,18.035-61.631,26.297-95.217
		c2.078-8.449,7.167-24.724,4.572-36.182c-1.633-7.214-20.048-47.289-35.752-81.84c-7.583-16.688-10-32.343-8.884-32.343
		C112.029,202.183,71.662,202.183,71.662,202.183z"/>
	<path fill="#CCC6E3" d="M37.47,166.243c0,0,36.423,60.754,22.896,67.958c-11.761,6.266-28.411,13.075-33.937,9.88
		c-5.299-3.063-30.534-52.871-24.854-65.802C12.419,153.598,35.913,162.106,37.47,166.243z"/>
	<path fill="#8283BD" d="M98.992,74.523c-4.477,0.816-14.579-5.988-19.4-3.868c-22.508,9.899-20.756,22.855-22.367,31.772
		c-1.619,8.965,10.6,92.544,13.094,99.35c2.494,6.804,39.996,6.391,38.069,1.467c-1.53-3.908,8.736-74.247,10.081-84.211
		c0.52-3.861,0.222-9.812-3.75-20.299C110.438,87.436,100.984,74.159,98.992,74.523z"/>
	<path fill="#515586" d="M10.341,217.103c0,0-2.055,5.152,7.498,23.156c0,0,36.186-8.848,34.794-11.714
		c-6.991-14.406-16.057-25.828-16.057-25.828L10.341,217.103z"/>
	<path fill="#7070B1" d="M69.839,483.071c0,0,10.399-7.02,16.302,1.883c4.41,6.652,12.13,1.131,29.155,10.478
		c10.755,5.905,2.632,12.153-3.271,15.039c-5.293,2.587-37.907-0.211-41.959-4.886C66.015,500.908,69.839,483.071,69.839,483.071z"
		/>
	<linearGradient id="SVGID_3_" gradientUnits="userSpaceOnUse" x1="105.0498" y1="385.4082" x2="142.4492" y2="385.4082">
		<stop  offset="0.0371" style="stop-color:#40435D"/>
		<stop  offset="0.7098" style="stop-color:#515586"/>
	</linearGradient>
	<path fill="url(#SVGID_3_)" d="M136.217,332.545c0,0,17.879-11.459-6.928-7.498c-6.023,0.963-23.772,112.925-24.234,119.021
		c-0.275,3.63,10.939,3.081,10.575,0.128C115.264,441.242,135.93,339.312,136.217,332.545z"/>
	<linearGradient id="SVGID_4_" gradientUnits="userSpaceOnUse" x1="98.9932" y1="280.9492" x2="127.6504" y2="280.9492">
		<stop  offset="0.0371" style="stop-color:#40435D"/>
		<stop  offset="0.7098" style="stop-color:#515586"/>
	</linearGradient>
	<path fill="url(#SVGID_4_)" d="M127.65,331.243c-2.213-2.415-23.66-54.939-24.637-57.698c-0.977-2.761-1.619-2.629-3.886-10.432
		c-0.983-3.384,3.732-32.459,3.732-32.459"/>
	<linearGradient id="SVGID_5_" gradientUnits="userSpaceOnUse" x1="140.3018" y1="333.7031" x2="152.8125" y2="333.7031">
		<stop  offset="0" style="stop-color:#515586"/>
		<stop  offset="0.9629" style="stop-color:#40435D"/>
	</linearGradient>
	<path fill="url(#SVGID_5_)" d="M152.813,329.116c0,0-6.429,2.829-11.471,2.758c-5.043-0.073,9.906,5.072,9.6,6.313
		C150.636,339.426,152.813,329.116,152.813,329.116z"/>
	<linearGradient id="SVGID_6_" gradientUnits="userSpaceOnUse" x1="76.2231" y1="402.9297" x2="103.9756" y2="402.9297">
		<stop  offset="0.2742" style="stop-color:#515586"/>
		<stop  offset="0.9629" style="stop-color:#40435D"/>
	</linearGradient>
	<path fill="url(#SVGID_6_)" d="M103.976,333.702c0,0-10.533,22.586-15.793,22.18c-5.259-0.404-7.66,116.196-11.112,114.541
		c-3.453-1.654,4.727,2.139,5.313,1.698"/>
	<linearGradient id="SVGID_7_" gradientUnits="userSpaceOnUse" x1="69.4731" y1="205.5967" x2="109.6904" y2="205.5967">
		<stop  offset="0.2902" style="stop-color:#515586"/>
		<stop  offset="0.9629" style="stop-color:#40435D"/>
	</linearGradient>
	<path fill="url(#SVGID_7_)" d="M71.662,202.183c0,0,32.829,2.114,36.471,0.941c3.643-1.172-0.282,7.859,0,5.489
		c0.283-2.369-39.199,0.133-38.654-1.227S71.662,202.183,71.662,202.183z"/>
	<linearGradient id="SVGID_8_" gradientUnits="userSpaceOnUse" x1="60.147" y1="268.9531" x2="78.918" y2="268.9531">
		<stop  offset="0.0371" style="stop-color:#40435D"/>
		<stop  offset="0.7098" style="stop-color:#515586"/>
	</linearGradient>
	<path fill="url(#SVGID_8_)" d="M72.194,200.994c0,0,0,0,3.359,3.02s-11.187,62.29-2.61,69.574
		c8.576,7.283,6.027,21.039,3.863,26.705c-2.165,5.663-1.578,28.741-2.275,34.194c-0.699,5.455-4.389,0-4.389,0
		s-4.318-67.591-9.23-76.917C56.984,250.113,69.314,202.954,72.194,200.994z"/>
	<linearGradient id="SVGID_9_" gradientUnits="userSpaceOnUse" x1="70.8105" y1="87.6919" x2="57.9131" y2="87.6919">
		<stop  offset="0.371" style="stop-color:#8283BD"/>
		<stop  offset="0.9629" style="stop-color:#40435D"/>
	</linearGradient>
	<path opacity="0.5" fill="url(#SVGID_9_)" d="M70.811,76.649c0,0-10.302,18.208-12.886,22.081
		C57.725,99.03,59.968,79.421,70.811,76.649z"/>
	<linearGradient id="SVGID_10_" gradientUnits="userSpaceOnUse" x1="61.3184" y1="146.3682" x2="94.2197" y2="146.3682">
		<stop  offset="0" style="stop-color:#40435D"/>
		<stop  offset="0.629" style="stop-color:#8283BD"/>
	</linearGradient>
	<path opacity="0.7" fill="url(#SVGID_10_)" d="M80.998,90.777c0,0,5.01,40.252-0.163,45.79s4.937,12.948,8.835,15.781
		c3.896,2.83-11.197-3.973-11.445,12.219c-0.113,7.506,4.977,12.478,6.009,14.789c7.108,15.906,12.64,14.892,8.645,13.638
		s-23.464,13.2-22.659,7.72c0.803-5.479-13.016-58.131-7.666-63.195C73.383,127.268,80.998,90.777,80.998,90.777z"/>
	<path fill="#CCC6E3" d="M16.547,163.954c0,0,40.307-92.919,61.021-80.375c20.715,12.542-12.887,131.887-17.735,134.527
		c-4.849,2.64-6.422-9.874-4.018-13.329c2.406-3.45,38.85-110.237,19.685-117.085c-8.703-3.11-37.104,49.195-48.838,75.346"/>
	<path fill="#8283BD" d="M58.47,104.526c1.692-1.042,12.452-13.225,12.897-13.749c1.642-1.925,5.68-1.575,3.728-2.647
		c0,0,6.141,4.109,1.617,22.164c-3.974,15.857-15.544,33.503-18.215,44.673c-4.159,17.397,22.905,42.488,30.122,51.301
		c7.217,8.813,0.174,13.382-2.911,11.938c-3.086-1.443-51.151-53.786-48.655-63.645C39.548,144.704,57.155,105.335,58.47,104.526z"
		/>
	<path fill="#7070B1" d="M106.854,454.911c0,0,3.072,1.808,6.938,2.31c4.295,0.56,8.553,2.096,8.287,5.883
		c-0.521,7.424,3.986,8.981,20.371,17.987c0,0,0.354,11.488-7.515,11.108c-8.044-0.389-35.775-13.644-34.789-22.273
		C100.9,463.323,106.854,454.911,106.854,454.911z"/>
	<linearGradient id="SVGID_11_" gradientUnits="userSpaceOnUse" x1="68.2529" y1="504.9922" x2="118.2461" y2="504.9922">
		<stop  offset="0.2742" style="stop-color:#515586"/>
		<stop  offset="0.9629" style="stop-color:#40435D"/>
	</linearGradient>
	<path fill="url(#SVGID_11_)" d="M68.253,499.124c0,0,40.222,10.311,47.304,7.478c7.082-2.832-1.871,3.371-3.531,3.869
		c-1.662,0.497-40.146,1.574-41.959-4.886C68.253,499.124,68.253,499.124,68.253,499.124z"/>
	<linearGradient id="SVGID_12_" gradientUnits="userSpaceOnUse" x1="100.0176" y1="479.457" x2="140.4346" y2="479.457">
		<stop  offset="0.2742" style="stop-color:#515586"/>
		<stop  offset="0.9629" style="stop-color:#40435D"/>
	</linearGradient>
	<path fill="url(#SVGID_12_)" d="M102.475,466.795c0,0,23.446,19.146,37.463,22.404c2.26,0.526-3.859,3.281-5.003,3
		c-7.179-1.774-32.419-12.851-34.367-19.787C98.62,465.473,102.475,466.795,102.475,466.795z"/>
	<linearGradient id="SVGID_13_" gradientUnits="userSpaceOnUse" x1="96.5498" y1="178.2959" x2="113.3223" y2="178.2959">
		<stop  offset="0.371" style="stop-color:#8283BD"/>
		<stop  offset="0.9629" style="stop-color:#40435D"/>
	</linearGradient>
	<path opacity="0.7" fill="url(#SVGID_13_)" d="M113.322,153.503c0,0-5.391,43.807-14.33,46.382
		c-8.94,2.574,9.553,4.376,9.396,2.298C108.23,200.106,113.322,153.503,113.322,153.503z"/>
	<path fill="#8283BD" d="M82.58,69.183"/>
	<linearGradient id="SVGID_14_" gradientUnits="userSpaceOnUse" x1="46.7949" y1="189.3481" x2="92.7031" y2="189.3481">
		<stop  offset="0.4839" style="stop-color:#8283BD"/>
		<stop  offset="0.9946" style="stop-color:#545894"/>
	</linearGradient>
	<path fill="url(#SVGID_14_)" d="M56.662,160.834c3.631-1.271-5.943,2.625-9.772,0.025c-2.087-1.416,30.88,45.924,41.729,55.432
		c7.619,6.679,2.242-7.039,2.242-7.039L56.662,160.834z"/>
	<path fill="#444660" d="M95.335,205.598c0,0-1.214,18.987-11.835,19.897c-10.621,0.911-3.714-3.033-2.616-3.033
		c1.1,0,13.177-14.533,10.476-17.584C88.66,201.826,95.335,205.598,95.335,205.598z"/>
	<linearGradient id="SVGID_15_" gradientUnits="userSpaceOnUse" x1="77.5576" y1="132.2227" x2="49.1992" y2="132.2227">
		<stop  offset="0.1452" style="stop-color:#8283BD"/>
		<stop  offset="0.9629" style="stop-color:#40435D"/>
	</linearGradient>
	<path opacity="0.7" fill="url(#SVGID_15_)" d="M76.604,101.235c0,0-25.113,53.65-27.374,47.818
		c-0.648-1.674,9.146,17.955,8.728,13.495C56.826,150.514,82.788,106.832,76.604,101.235z"/>
	<linearGradient id="SVGID_16_" gradientUnits="userSpaceOnUse" x1="45.7954" y1="161.4126" x2="39.8809" y2="161.4126">
		<stop  offset="0.1452" style="stop-color:#8283BD"/>
		<stop  offset="0.9629" style="stop-color:#40435D"/>
	</linearGradient>
	<path fill="url(#SVGID_16_)" d="M39.881,161.552c-0.002-1.4,5.252-0.928,5.555-5.276c0.82-11.734,0.148,14.517-1.108,13.258
		C41.898,167.106,39.881,161.552,39.881,161.552z"/>
	<linearGradient id="SVGID_17_" gradientUnits="userSpaceOnUse" x1="101.7773" y1="73.7437" x2="78.0957" y2="73.7437">
		<stop  offset="0.371" style="stop-color:#8283BD"/>
		<stop  offset="0.9629" style="stop-color:#40435D"/>
	</linearGradient>
	<path opacity="0.7" fill="url(#SVGID_17_)" d="M81.144,70.244c0,0,16.659,5.34,17.849,4.279s2.141,1.682,2.773,2.606
		c0.632,0.924-24.924-3.645-23.622-5.376C79.446,70.023,81.144,70.244,81.144,70.244z"/>
	<linearGradient id="SVGID_18_" gradientUnits="userSpaceOnUse" x1="40.043" y1="200.7798" x2="53.7328" y2="192.876">
		<stop  offset="0.1344" style="stop-color:#CCC6E3"/>
		<stop  offset="0.9629" style="stop-color:#867EB2"/>
	</linearGradient>
	<path fill="url(#SVGID_18_)" d="M28.394,162.331c-2.479,2.452,29.521,74.915,31.973,71.87c2.45-3.042,3.905-12.388,0.881-20.38
		s-19.835-44.539-22.898-46.923C35.287,164.514,28.394,162.331,28.394,162.331z"/>
	<linearGradient id="SVGID_19_" gradientUnits="userSpaceOnUse" x1="35.5044" y1="221.2529" x2="45.2952" y2="215.6002">
		<stop  offset="0.1183" style="stop-color:#515586"/>
		<stop  offset="0.9414" style="stop-color:#3E405A"/>
	</linearGradient>
	<path fill="url(#SVGID_19_)" d="M36.611,202.717c0,0-4.164,9.512-2.389,15.803c1.775,6.287,13.139,13.396,17.299,11.381
		C54.688,228.364,36.611,202.717,36.611,202.717z"/>
	<path fill="#CCC6E3" d="M26.662,162.923c0,0-12.215-11.831-17.678-8.165c-5.461,3.666-0.553,8.974,0,12.465
		c0.554,3.491,4.396,0,4.396,0s-6.824-9.408-3.183-9.408s9.021,3.066,10.124,4.265"/>
	<path fill="#CCC6E3" d="M73.802,87.692"/>
	<linearGradient id="SVGID_20_" gradientUnits="userSpaceOnUse" x1="59.918" y1="144.5488" x2="37.7778" y2="106.201">
		<stop  offset="0.1559" style="stop-color:#CCC6E3"/>
		<stop  offset="0.6613" style="stop-color:#A199CA"/>
		<stop  offset="0.979" style="stop-color:#867DB8"/>
	</linearGradient>
	<path fill="url(#SVGID_20_)" d="M73.802,87.692c0,0-6.061,1.885-15.332,16.834c-9.271,14.947-28.03,48.677-30.688,56.045
		c-2.656,7.37-4.37,2.408-3.412,0.843C25.328,159.847,57.913,82.414,73.802,87.692z"/>
	<linearGradient id="SVGID_21_" gradientUnits="userSpaceOnUse" x1="12.0771" y1="166.519" x2="7.3652" y2="158.3578">
		<stop  offset="0.1559" style="stop-color:#CCC6E3"/>
		<stop  offset="0.6613" style="stop-color:#A199CA"/>
		<stop  offset="0.979" style="stop-color:#867DB8"/>
	</linearGradient>
	<polygon fill="url(#SVGID_21_)" points="9.073,157.371 10.058,166.967 11.183,167.034 	"/>
	<path fill="#D2AD8B" d="M139.328,34.316"/>
	<linearGradient id="SVGID_22_" gradientUnits="userSpaceOnUse" x1="77.1582" y1="58.0537" x2="95.6191" y2="58.0537">
		<stop  offset="0.0156" style="stop-color:#CEB08C"/>
		<stop  offset="0.7151" style="stop-color:#FAE7CB"/>
	</linearGradient>
	<path fill="url(#SVGID_22_)" d="M77.158,45.432c0,0,4.414,8.192,11.438,11.367c7.022,3.177,7.022,3.177,7.022,3.177
		s-8.121,2.274-9.23,2.266c-1.106-0.008-0.045,5.461,0.188,7.437c0.231,1.978-3.339,0.453-5.521,0.185
		C79.094,69.621,77.158,45.432,77.158,45.432z"/>
	<linearGradient id="SVGID_23_" gradientUnits="userSpaceOnUse" x1="110.0098" y1="39.8315" x2="75.2705" y2="39.8315">
		<stop  offset="0.0156" style="stop-color:#CEB08C"/>
		<stop  offset="1" style="stop-color:#FAE7CB"/>
	</linearGradient>
	<path opacity="0.5" fill="url(#SVGID_23_)" d="M98.875,46.101c-0.713-0.54-3.783-4.507-6.467-6.569
		c1.889-6.741,17.602-21.805,17.602-21.805c-7.719-0.068-32.338,12.415-32.914,15.396c-0.146,0.759-0.127,2.149,0.108,3.736
		c-0.867-0.798-1.806-0.395-1.933,4.818c-0.221,9.041,25.229,22.881,25.408,19.828C100.764,60.074,103.186,49.362,98.875,46.101z"/>
	<path fill="#D2AD8B" d="M104.482,21.906c0,0,18.123-12.332,10.971-13.958c-4.538-1.033-9.586-1.633-10.445-2.38
		c-4.723-4.113-20.004-5.717-24.4-2.508c-3.428,2.502-8.988,2.062-10.62,5.614c-2.579,5.613-3.028,9.862-2.056,15.327
		c1.721,9.674,5.623,18.726,9.399,21.962c6.042,5.179,3.91-13.444,9.397-17.291C90.85,25.785,102.576,24.633,104.482,21.906z"/>
	<path fill="#FAE7CB" d="M85.141,32.074c-0.348,2.098-0.22-6.475-3.911-2.127c-3.896,4.591,1.05,7.737,2.991,10.327
		C86.164,42.864,85.141,32.074,85.141,32.074z"/>
	<path fill="#FAE7CB" d="M109.244,35.251c0,0-0.54,13.171-1.512,13.924c-0.971,0.757,3.072-0.985,4.746-1.511
		C114.544,47.018,108.758,35.251,109.244,35.251z"/>
	<linearGradient id="SVGID_24_" gradientUnits="userSpaceOnUse" x1="107.1387" y1="35.8979" x2="98.5742" y2="35.8979">
		<stop  offset="0.0156" style="stop-color:#CEB08C"/>
		<stop  offset="1" style="stop-color:#FAE7CB"/>
	</linearGradient>
	<path fill="url(#SVGID_24_)" d="M105.198,34.781c0,0-3.942,0.421-5.989,1.722c-2.052,1.299,1.295-0.329,4.04,0.047
		c1.587,0.219,2.5,0.854,3.62-0.047C108.002,35.591,105.198,34.781,105.198,34.781z"/>
	<path opacity="0.3" fill="#C68181" d="M107.047,52.66c0,0-3.846,1.601-4.562,0.851c-0.716-0.748,4.655,3.583,5.178,2.709
		S107.592,52.449,107.047,52.66z"/>
	<linearGradient id="SVGID_25_" gradientUnits="userSpaceOnUse" x1="113.0723" y1="41.0503" x2="96.9434" y2="41.0503">
		<stop  offset="0.0156" style="stop-color:#CEB08C"/>
		<stop  offset="1" style="stop-color:#FAE7CB"/>
	</linearGradient>
	<path opacity="0.5" fill="url(#SVGID_25_)" d="M112.723,46.032c-0.232-0.692-2.609-5.412-3.134-6.91
		c-0.211-1.946-0.206-4.431-0.456-4.966c-0.883-1.898-12.189,2.437-12.189,2.437s6.391,7.159,10.195,10.064
		c0.867,1.104,1.358,1.465,1.457,1.557c0.23,0.209,0.873,0.33,2.205,0.04c0.017-0.002,0.038,0.002,0.045-0.007l0.002-0.004
		c0.274-0.061,1.819-0.63,2.078-0.726C113.164,47.427,113.123,47.23,112.723,46.032z"/>
	<path opacity="0.5" fill="#C68181" d="M107.838,53.759c0,0-3.744,0.145-4.652-0.051c-0.914-0.197,4.82,0.784,4.82,0.784"/>
	<path fill="#A6886F" d="M79.066,8.27c2.414,1.669,6.195,0.906,7.47,2.579c0.94,1.235-0.203,4.119,4.514,2.895
		c2.398-0.623-0.474,3.282,1.738,4.39c2.22,1.109,8.13,0.052-1.84,5.121c-4.412,2.242-6.958,5.137-6.417,7.765
		c0.543,2.627-0.012-4.796-2.98-1.844c-2.97,2.951-2.059,5.295-1.199,6.504c0.859,1.21,2.113,2.62,2.113,2.62
		s-0.566,4.087-1.314,5.756c-0.747,1.668-1.169,4.561-7.988-8.023c-6.817-12.583-4.964-23.114-0.773-26.884
		C74.017,7.684,76.725,6.651,79.066,8.27z"/>
</g>
</svg>
