<?xml version="1.0" encoding="utf-8"?>
<!-- Generator: Adobe Illustrator 16.0.0, SVG Export Plug-In . SVG Version: 6.00 Build 0)  -->
<!DOCTYPE svg PUBLIC "-//W3C//DTD SVG 1.1//EN" "http://www.w3.org/Graphics/SVG/1.1/DTD/svg11.dtd">
<svg version="1.1" id="Слой_1" xmlns="http://www.w3.org/2000/svg" xmlns:xlink="http://www.w3.org/1999/xlink" x="0px" y="0px"
	 width="284px" height="393px" viewBox="0 0 284 393" enable-background="new 0 0 284 393" xml:space="preserve">
<g>
	<polygon fill="#FAE7CB" points="264.521,232.693 268.343,245.257 262.469,251.723 260.505,250.001 263.271,242.209 261.33,238.076 
		257.234,241.945 256.331,241.701 262.337,232.693 	"/>
	<path fill="#FAE7CB" d="M136.137,160.397c0,0-8.896-13.207-8.479-17.166c0.249-2.371,8.147,2.926,9.135,0
		s5.776,14.063,3.621,16.748C137.316,163.836,136.137,160.397,136.137,160.397"/>
	<path fill="#F6DEE0" d="M186.632,145.662c4.139,0.153,42.929-13.809,48.633,0.975c6.671,17.284,12.049,36.991,13.917,39.183
		c6.67,7.825,8.087,19.576,10.158,28.377c2.069,8.801,9.446,21.872,10.48,21.354c1.038-0.518-14.079,0.524-14.597,3.112
		c-0.516,2.589-9.504-26.523-11.416-34.174c-1.554-6.212-14.754-33.003-14.754-33.003s-3.494,57.983-5.047,64.841
		c-1.549,6.837-21.312,6.602-25.628-1.94c-5.183-10.26-7.074-56.082-13.261-65.617c-1.553-2.395-6.212,17.05-12.812,27.566
		c-9.101,14.497-37.253-31.976-36.735-33.817c0.518-1.841,8.316-11.052,8.779-9.496c0.529,1.786,11.172,25.406,13.783,26.617
		c5.436,2.524,7.378,6.18,7.378,6.18S172.655,145.146,186.632,145.662z"/>
	<polygon fill="#E8AAAD" points="200.206,164.849 190.313,146.4 180.237,150.941 191.944,164.849 	"/>
	<polygon fill="#E8AAAD" points="218.21,165.662 228.782,148.143 237.622,151.485 224.113,164.26 	"/>
	<linearGradient id="SVGID_1_" gradientUnits="userSpaceOnUse" x1="192.9014" y1="210.5723" x2="227.1357" y2="210.5723">
		<stop  offset="0" style="stop-color:#F6DEE0"/>
		<stop  offset="0.9898" style="stop-color:#ECB9BD"/>
	</linearGradient>
	<path fill="url(#SVGID_1_)" d="M192.901,205.297c0,0,28.789,5.218,33.525-2.646c0.978-1.624,1.327,15.862-1.523,15.951
		c-1.658,0.049-7.059-8.028-7.059-8.028L192.901,205.297z"/>
	<path fill="#FAE7CB" d="M222.714,284.346c0,0-0.852,37.583-1.15,47.496c-0.319,10.657-2.328,47.917-3.883,53.741
		c-1.554,5.824-9.362-0.312-9.362-0.312s2.294-46.623,4.235-55.555c1.984-9.135-2.338-40.493-4.235-43.722
		C206.422,282.769,222.714,284.346,222.714,284.346z"/>
	<path fill="#FAE7CB" d="M204.065,283.396c0,0-1.981,34.469-3.923,46.505c-1.697,10.525-2.29,48.693-3.843,54.519
		c-1.552,5.822-7.93-1.133-7.93-1.133c1.555-42.947,1.289-42.834,1.289-54.163c0-8.542,0.451-46.059-1.444-49.286
		C186.316,276.612,204.065,283.396,204.065,283.396z"/>
	<linearGradient id="SVGID_2_" gradientUnits="userSpaceOnUse" x1="188.3682" y1="325.0137" x2="203.6514" y2="325.0137">
		<stop  offset="0.449" style="stop-color:#FAE7CB"/>
		<stop  offset="0.5818" style="stop-color:#F7E4C7"/>
		<stop  offset="0.6743" style="stop-color:#F1DCBE"/>
		<stop  offset="0.7547" style="stop-color:#E8D0AF"/>
		<stop  offset="0.8276" style="stop-color:#DDC19D"/>
		<stop  offset="0.8929" style="stop-color:#CFAF89"/>
	</linearGradient>
	<path fill="url(#SVGID_2_)" d="M203.651,288.562c0,0-6.759,77.392-7.051,80.198c-0.296,2.807,2.538-87.825-6.184-87.554
		C181.694,281.478,203.651,288.562,203.651,288.562z"/>
	<path fill="#E8AAAD" d="M226.142,217.937c0,0,18.248,57.14,27.207,63.991c6.602,5.048-41.543,11.648-49.697,8.153
		c-4.996-2.141-39.181-11.648-43.487-19.802c-3.238-6.135,31.909-39.945,32.959-50.906
		C194.177,208.411,206.689,222.74,226.142,217.937z"/>
	<path fill="#E8AAAD" d="M187.319,370.28c0,0,6.518-2.724,9.281,0c3.148,3.105,1.397,19.026,1.397,19.026s-7.958,4.27-8.733,1.553
		C188.487,388.141,187.319,370.28,187.319,370.28z"/>
	<path fill="#E8AAAD" d="M209.842,366.399c0,0,6.729-1.765,9.493,0.96c3.148,3.105-1.647,20.183-1.647,20.183
		s-8.587,2.407-9.361-0.312C207.547,384.513,209.842,366.399,209.842,366.399z"/>
	<path fill="#E8AAAD" d="M184.534,163.921c0,0,11.207-0.169,21.76,0.255c10.169,0.408,25.838-3.963,25.287,4.87
		c-1.165,18.637,1.955,29.407,0.012,35.573c-1.939,6.167-28.938,6.273-43.223,3.1C185.401,207.06,184.534,163.921,184.534,163.921z"
		/>
	<linearGradient id="SVGID_3_" gradientUnits="userSpaceOnUse" x1="159.9727" y1="278.6309" x2="253.9502" y2="278.6309">
		<stop  offset="0" style="stop-color:#FFFFFF;stop-opacity:0.2"/>
		<stop  offset="0.0506" style="stop-color:#FBEFEF;stop-opacity:0.2405"/>
		<stop  offset="0.1809" style="stop-color:#F1CACB;stop-opacity:0.3447"/>
		<stop  offset="0.3179" style="stop-color:#EAACAD;stop-opacity:0.4543"/>
		<stop  offset="0.4615" style="stop-color:#E49596;stop-opacity:0.5692"/>
		<stop  offset="0.6145" style="stop-color:#DF8486;stop-opacity:0.6916"/>
		<stop  offset="0.7836" style="stop-color:#DD7A7C;stop-opacity:0.8269"/>
		<stop  offset="1" style="stop-color:#DC7779"/>
	</linearGradient>
	<path fill="url(#SVGID_3_)" d="M253.95,281.22c0,0-6.228-2.816-12.958,1.577s-16.651,9.667-23.857,8.196
		c-7.206-1.473-12.605-10.41-22.848-12.024c-10.243-1.614-14.252,2.688-19.753,0c-5.503-2.688-11.438-14.896-12.227-12.873
		c-0.787,2.025-2.335,3.234-2.335,3.234s58.608,38.826,93.381,13.467L253.95,281.22z"/>
	<linearGradient id="SVGID_4_" gradientUnits="userSpaceOnUse" x1="210.9492" y1="186.3677" x2="232.0996" y2="186.3677">
		<stop  offset="0" style="stop-color:#AC8B8B"/>
		<stop  offset="0.0153" style="stop-color:#E8AAAD"/>
		<stop  offset="1" style="stop-color:#DD7F82"/>
	</linearGradient>
	<path fill="url(#SVGID_4_)" d="M229.68,164.849l-13.1,18.659c0,0-3.542,4.807-5.32,5.065c-1.782,0.258,4.69-0.518,4.43,3.106
		c-0.257,3.622-0.267,5.176-1.685,5.693c-1.421,0.519,2.377-0.236,4.75,1.694s-0.261,5.139-2.029,6.848
		c-1.768,1.709,10.98,3.501,14.206-0.194C234.157,202.023,229.68,164.849,229.68,164.849z"/>
	<path fill="#F6DEE0" d="M187.538,164.849l40.378-0.589c0,0-3.431,22.107-4.983,25.941c-0.393,0.971-22.727,3.502-26.863-1.944
		C191.346,182.035,187.538,164.849,187.538,164.849z"/>
	<linearGradient id="SVGID_5_" gradientUnits="userSpaceOnUse" x1="190.416" y1="248.3418" x2="254.2891" y2="248.3418">
		<stop  offset="0" style="stop-color:#FFFFFF"/>
		<stop  offset="0.0382" style="stop-color:#FCF3F3"/>
		<stop  offset="0.1759" style="stop-color:#F2CDCE"/>
		<stop  offset="0.3196" style="stop-color:#EAAEAF"/>
		<stop  offset="0.4686" style="stop-color:#E49697"/>
		<stop  offset="0.6253" style="stop-color:#DF8486"/>
		<stop  offset="0.7947" style="stop-color:#DD7A7C"/>
		<stop  offset="1" style="stop-color:#DC7779"/>
	</linearGradient>
	<path fill="url(#SVGID_5_)" d="M195.138,215.479c0,0,26.396,5.932,29.766,1.934c3.369-4,17.237,58.407,29.357,63.659
		c1.313,0.567-43.243-0.535-38.502-6.233c7.756-9.317,10.536-23.814,10.536-23.814l-16.965-1.721l3.624-18.986
		c11.092,1.143-14.322-18.354-22.423-4.158C189.55,227.881,195.138,215.479,195.138,215.479z"/>
	<linearGradient id="SVGID_6_" gradientUnits="userSpaceOnUse" x1="224.1133" y1="199.0645" x2="267.207" y2="199.0645">
		<stop  offset="0" style="stop-color:#EBB5B6"/>
		<stop  offset="0.5457" style="stop-color:#F0C9CA"/>
		<stop  offset="1" style="stop-color:#F6DEE0"/>
	</linearGradient>
	<path opacity="0.5" fill="url(#SVGID_6_)" d="M224.113,164.26l3.803,3.253c0,0,11.593,26.391,19.646,45.559
		c5.649,13.44,3.803,17.012,5.271,19.662c0.752,1.355,14.374,1.121,14.374,1.121l-6.006-6.588v-8.283l-6.374-19.021l-5.387-3.499
		l-2.635-8.271l-4.312-4.575v-7.603l-3.972-1.554l-3.058-6.599L224.113,164.26z"/>
	<path fill="#5F4D4D" d="M192.105,106.841c-4.463,6.211-2.523,37.272-12.617,37.661c-10.096,0.388,19.856,13.788,25.837,14.635
		c17.715,2.506,49.967-12.753,35.703-15.605c-13.59-2.719-11.844-33.584-16.502-38.634c-0.689-0.747-6.601-6.804-16.435-6.794
		C200.865,98.111,194.228,103.893,192.105,106.841z"/>
	<linearGradient id="SVGID_7_" gradientUnits="userSpaceOnUse" x1="187.5381" y1="117.3198" x2="226.3848" y2="117.3198">
		<stop  offset="0" style="stop-color:#AC8B8B"/>
		<stop  offset="0.1511" style="stop-color:#907474"/>
		<stop  offset="0.335" style="stop-color:#796262"/>
		<stop  offset="0.5295" style="stop-color:#6A5656"/>
		<stop  offset="0.7399" style="stop-color:#624F4F"/>
		<stop  offset="0.9949" style="stop-color:#5F4D4D"/>
	</linearGradient>
	<path fill="url(#SVGID_7_)" d="M192.146,106.905c0,0,8.687-9.068,14.805-8.797c6.115,0.271,15.487,3.134,18.589,8.49
		c3.104,5.356-3.347,22.164-3.347,22.164l-9.8-16.676l-13.24,14.678l-0.605-17.011l-11.01,26.783L192.146,106.905z"/>
	<linearGradient id="SVGID_8_" gradientUnits="userSpaceOnUse" x1="207.9453" y1="328.4482" x2="222.9326" y2="328.4482">
		<stop  offset="0.449" style="stop-color:#FAE7CB"/>
		<stop  offset="0.5818" style="stop-color:#F7E4C7"/>
		<stop  offset="0.6743" style="stop-color:#F1DCBE"/>
		<stop  offset="0.7547" style="stop-color:#E8D0AF"/>
		<stop  offset="0.8276" style="stop-color:#DDC19D"/>
		<stop  offset="0.8929" style="stop-color:#CFAF89"/>
	</linearGradient>
	<path fill="url(#SVGID_8_)" d="M222.933,291.062c0,0-3.217,71.894-3.509,74.7c-0.294,2.808-0.683-74.973-9.406-74.7
		C201.296,291.332,222.933,291.062,222.933,291.062z"/>
	<linearGradient id="SVGID_9_" gradientUnits="userSpaceOnUse" x1="214.8398" y1="377.1816" x2="220.8496" y2="377.1816">
		<stop  offset="0" style="stop-color:#E8AAAD"/>
		<stop  offset="0.229" style="stop-color:#E7A8AC"/>
		<stop  offset="0.3733" style="stop-color:#E6A2A8"/>
		<stop  offset="0.494" style="stop-color:#E398A2"/>
		<stop  offset="0.6013" style="stop-color:#E08B9A"/>
		<stop  offset="0.6582" style="stop-color:#DE8295"/>
	</linearGradient>
	<path fill="url(#SVGID_9_)" d="M215.992,366.091c0,0,4.756,1.421,4.855,3.979c0.101,2.558-3.4,16.15-2.884,16.469
		s-3.124,1.734-3.124,1.734S217.94,366.116,215.992,366.091z"/>
	<linearGradient id="SVGID_10_" gradientUnits="userSpaceOnUse" x1="194.2168" y1="379.8623" x2="199.0771" y2="379.8623">
		<stop  offset="0" style="stop-color:#E8AAAD"/>
		<stop  offset="0.2174" style="stop-color:#E7A8AC"/>
		<stop  offset="0.3543" style="stop-color:#E6A2A8"/>
		<stop  offset="0.469" style="stop-color:#E398A2"/>
		<stop  offset="0.5708" style="stop-color:#E08B9A"/>
		<stop  offset="0.648" style="stop-color:#DD7F93"/>
	</linearGradient>
	<path fill="url(#SVGID_10_)" d="M194.217,369.325c0,0,4.757,1.423,4.854,3.98c0.101,2.557-1.073,16.001-2.883,16.468
		c-0.588,0.151-1.265,0.626-1.265,0.626S196.164,369.352,194.217,369.325z"/>
	<path fill="#FAE7CB" d="M283.737,226.038"/>
	<linearGradient id="SVGID_11_" gradientUnits="userSpaceOnUse" x1="261.3301" y1="239.0645" x2="263.2715" y2="239.0645">
		<stop  offset="0.352" style="stop-color:#F1C692"/>
		<stop  offset="0.4205" style="stop-color:#F4CFA0"/>
		<stop  offset="0.5239" style="stop-color:#F7D9B2"/>
		<stop  offset="0.6403" style="stop-color:#F9E1C0"/>
		<stop  offset="0.7793" style="stop-color:#FAE5C8"/>
		<stop  offset="1" style="stop-color:#FAE7CB"/>
	</linearGradient>
	<polygon fill="url(#SVGID_11_)" points="263.271,242.209 263.271,235.92 261.33,238.076 	"/>
	<linearGradient id="SVGID_12_" gradientUnits="userSpaceOnUse" x1="167.3564" y1="180.9824" x2="185.1182" y2="180.9824">
		<stop  offset="0.0867" style="stop-color:#F6DEE0"/>
		<stop  offset="0.3692" style="stop-color:#F5DCDD"/>
		<stop  offset="0.5471" style="stop-color:#F3D4D5"/>
		<stop  offset="0.696" style="stop-color:#EFC7C9"/>
		<stop  offset="0.8283" style="stop-color:#EBB5B8"/>
		<stop  offset="0.9286" style="stop-color:#E6A5A8"/>
	</linearGradient>
	<path opacity="0.5" fill="url(#SVGID_12_)" d="M184.534,163.921l0.584,4.849c0,0-10.711,28.112-14.189,29.139
		c-3.48,1.027-2.894-4.096-3.476-4.289c-0.583-0.194,1.553-7.415,4.271-7.009c2.716,0.407,4.95-6.582,4.514-7.552
		c-0.438-0.971,1.641-8.153,3.999-8.932C182.595,169.351,184.534,163.921,184.534,163.921z"/>
	<linearGradient id="SVGID_13_" gradientUnits="userSpaceOnUse" x1="140.272" y1="171.918" x2="165.5117" y2="171.918">
		<stop  offset="0.1429" style="stop-color:#F6DEE0"/>
		<stop  offset="0.3945" style="stop-color:#F5DADC"/>
		<stop  offset="0.644" style="stop-color:#F2D0D1"/>
		<stop  offset="0.8919" style="stop-color:#EDBEC0"/>
		<stop  offset="1" style="stop-color:#EBB5B7"/>
	</linearGradient>
	<path opacity="0.5" fill="url(#SVGID_13_)" d="M141.632,155.625c0,0,14.886,23.09,16.502,23.976
		c1.839,1.009,7.378,6.179,7.378,6.179s-1.446,2.885-2.303,2.427c-3.253-1.735-25.229-29.611-22.741-31.305
		C142.953,155.21,141.632,155.625,141.632,155.625z"/>
	<path fill="#AC96C6" d="M65.71,369.926c3.393,3.306-3.551,10.44-4.063,14.498c-0.513,4.059,33.146,0.251,38.556-9.266
		c5.409-9.518-4.207-11.922-9.016-11.922s-9.617,6.612-12.021,7.212C76.76,371.05,65.71,369.926,65.71,369.926z"/>
	<path fill="#AC96C6" d="M32.891,360.367c3.395,3.307-3.55,10.44-4.063,14.498c-0.514,4.058,33.147,0.251,38.557-9.267
		c5.41-9.517-4.209-11.922-9.017-11.922c-4.809,0-9.617,6.612-12.021,7.214C43.942,361.491,32.891,360.367,32.891,360.367z"/>
	<path fill="#D9C8E2" d="M76.978,168.961c0,0,5.856,10.51,8.581,25.656c5.048,28.073,20.975,65.671,19.475,70.741
		c-2.124,7.18-18.965,105.974-17.153,109.275c2.471,4.503-21.996-3.097-21.996-3.097s5.525-6.599,5.094-24.944
		c-0.728-30.739,12.105-74.746,11.815-79.732c-0.897-15.556-20.229-53.007-23.235-64.314c-3.007-11.307,0,10.819,0,10.819
		s2.303,23.73,3.886,39.363c1.083,10.704,3.24,16.268,1.272,20.571c-5.41,11.832-6.599,97.92-18.31,94.67
		c-7.163-1.988-13.637-2.894-13.637-2.894c0.926-28.735,2.216-45.479,4.588-59.133c4.428-25.492,2.576-20.388,1.48-43.204
		c-0.848-17.653-2.885-40.056-5.861-62.734c-1.639-12.489,6.955-26.326,7.742-33.047L76.978,168.961z"/>
	<path fill="#AC96C6" d="M58.293,72.093c1.353,0,23.549,5.414,33.291,15.029c9.914,9.784,6.485,41.714,5.941,57.898
		c-0.328,9.719,27.925-7.691,27.925-7.691l3.721,20.344c0,0-38.359,1.871-43.2-1.286c-4.844-3.155-5.766-57.744-6.87-54.054
		c-1.638,5.479-1.395,62.959-1.845,68.192c-0.451,5.233-36.517,1.628-36.517,1.628s-12.011-72.13-7.087-71.813
		c4.641,0.3-5.297,13.126-18.082,27.83c-3.15,3.623,29.484,23.752,29.935,24.711c0.452,0.957-1.352,12.224-1.352,12.224
		S-1.062,139.11,0.292,132.348c1.352-6.763,22.09-54.097,32.046-57.454C35.173,73.937,58.293,72.093,58.293,72.093z"/>
	<path fill="#8473B1" d="M125.45,137.169c0,0-3.608,5.982-2.105,10.192c1.503,4.208,4.438,10.382,5.826,10.149
		c1.387-0.23-4.161,0.695-1.388,0.232c2.774-0.463,2.774-0.463,2.774-0.463"/>
	<linearGradient id="SVGID_14_" gradientUnits="userSpaceOnUse" x1="81.7231" y1="128.1699" x2="92.1802" y2="128.1699">
		<stop  offset="0.0102" style="stop-color:#7C69AB"/>
		<stop  offset="0.898" style="stop-color:#AC96C6"/>
	</linearGradient>
	<path fill="url(#SVGID_14_)" d="M82.211,104.17c0,0-2.28,42.715,3.018,50.205c6.697,9.474,5.935-8.297,5.935-8.297
		s4.162-43.423-4.354-46.628C82.495,97.824,82.211,104.17,82.211,104.17z"/>
	<linearGradient id="SVGID_15_" gradientUnits="userSpaceOnUse" x1="55.6152" y1="135.3013" x2="82.2866" y2="135.3013">
		<stop  offset="0.2245" style="stop-color:#AC96C6"/>
		<stop  offset="0.2419" style="stop-color:#AB94C5"/>
		<stop  offset="0.7494" style="stop-color:#8772B0"/>
		<stop  offset="0.9898" style="stop-color:#7C69AB"/>
	</linearGradient>
	<path fill="url(#SVGID_15_)" d="M66.733,103.721c-4.207,6.475-0.221,11.284-7.322,12.787c-7.103,1.502,3.07,0.299,5.796,4.958
		c2.729,4.66,0.704,7.195-5.796,9.534c-6.502,2.338,7.577,0.723,5.796,7.089c-1.778,6.369-1.508,8.866-7.953,10.173
		c-6.448,1.306,8.232-3.91,7.953,3.355c-0.275,7.268,3.632,9.07-4.032,11.173c-7.664,2.105,19.519,2.902,16.296,4.907
		c-3.223,2.006,5.032-62.035,4.812-63.977C82.062,101.781,66.733,103.721,66.733,103.721z"/>
	<linearGradient id="SVGID_16_" gradientUnits="userSpaceOnUse" x1="8.7383" y1="140.1738" x2="34.3145" y2="140.1738">
		<stop  offset="0.0102" style="stop-color:#7C69AB"/>
		<stop  offset="0.898" style="stop-color:#AC96C6"/>
	</linearGradient>
	<path fill="url(#SVGID_16_)" d="M15.515,129.453l18.8,15.667c0,0-4.912,0.213-3.601,5.122c1.31,4.91-19.839-19.639-21.976-16.551"
		/>
	<linearGradient id="SVGID_17_" gradientUnits="userSpaceOnUse" x1="11.8359" y1="117.8301" x2="33.082" y2="117.8301">
		<stop  offset="0.3776" style="stop-color:#AC96C6"/>
		<stop  offset="1" style="stop-color:#7C69AB"/>
	</linearGradient>
	<path fill="url(#SVGID_17_)" d="M33.082,106.207c-8.742,15.266-24.402,20.885-19.68,22.844c5.334,2.21-1.566-5.387-1.566-5.387"/>
	<path fill="#DCBD94" d="M95.949,85.322c11.341,17.791,4.948,19.871-11.106,17.74c-9.767-1.294-20.613,2.334-26.394,1.497
		c-5.62-0.815-16.207-6.2-25.863-4.381c-15.58,2.935-24.377-12.048-19.316-10.497c7.793,2.39,19.834-77.539,29.301-83.705
		c2.773-1.808,8.565-7.011,20.287-6.457c3.43,0.162,12.219,2.165,16.68,9.918C91.537,30.296,92.705,80.233,95.949,85.322z"/>
	<linearGradient id="SVGID_18_" gradientUnits="userSpaceOnUse" x1="62.0103" y1="84.2764" x2="95.6968" y2="84.2764">
		<stop  offset="0.1276" style="stop-color:#DCBE95"/>
		<stop  offset="0.5204" style="stop-color:#DCBE95"/>
		<stop  offset="0.5521" style="stop-color:#DABC93"/>
		<stop  offset="0.8196" style="stop-color:#C9AA83"/>
		<stop  offset="0.9898" style="stop-color:#C3A47D"/>
	</linearGradient>
	<path fill="url(#SVGID_18_)" d="M81.209,64.67c-0.027-7.221,9.039,36.685,14.031,38.542c4.542,1.691-26.162,1.069-32.251,1.469
		C56.897,105.08,81.237,72.241,81.209,64.67z"/>
	<linearGradient id="SVGID_19_" gradientUnits="userSpaceOnUse" x1="29.0044" y1="82.1455" x2="63.4336" y2="82.1455">
		<stop  offset="0.1276" style="stop-color:#DCBE95"/>
		<stop  offset="0.5204" style="stop-color:#DCBE95"/>
		<stop  offset="0.5521" style="stop-color:#DABC93"/>
		<stop  offset="0.8196" style="stop-color:#C9AA83"/>
		<stop  offset="0.9898" style="stop-color:#C3A47D"/>
	</linearGradient>
	<path fill="url(#SVGID_19_)" d="M54.521,60.02c-0.026-7.221,3.477,42.803,8.468,44.661c4.542,1.69-27.099-4.25-33.188-3.849
		C23.71,101.231,54.55,67.589,54.521,60.02z"/>
	<linearGradient id="SVGID_20_" gradientUnits="userSpaceOnUse" x1="14.6558" y1="82.3242" x2="32.7695" y2="82.3242">
		<stop  offset="0.1276" style="stop-color:#DCBE95"/>
		<stop  offset="0.4031" style="stop-color:#DCBE95"/>
		<stop  offset="0.4427" style="stop-color:#DABC93"/>
		<stop  offset="0.777" style="stop-color:#C9AA83"/>
		<stop  offset="0.9898" style="stop-color:#C3A47D"/>
	</linearGradient>
	<path fill="url(#SVGID_20_)" d="M31.407,64.826c1.362-7.164-4.224,33.655,0.77,35.514c4.541,1.69-18.521-3.612-17.487-6.913
		C16.514,87.603,29.993,72.266,31.407,64.826z"/>
	<linearGradient id="SVGID_21_" gradientUnits="userSpaceOnUse" x1="32.77" y1="23.5908" x2="85.0654" y2="23.5908">
		<stop  offset="0.2143" style="stop-color:#FAE7CB"/>
		<stop  offset="0.2841" style="stop-color:#F5E1C3"/>
		<stop  offset="0.6729" style="stop-color:#E3C7A1"/>
		<stop  offset="0.8776" style="stop-color:#DCBE95"/>
	</linearGradient>
	<path opacity="0.7" fill="url(#SVGID_21_)" d="M39.713,9.07c0,0,5.277-9.975,16.344-9.579c11.069,0.395,19.607,1.374,23.48,9.625
		c3.874,8.252,5.546,31.692,5.528,27.183c-0.007-1.88-10.725-12.523-13.921-15.247s-2.687,13.232-1.256,16.577
		c3.018,7.044-16.366-14.03-16.366-19.964c0-5.902-15.341,33.66-14.877,29.766c0.363-3.063,3.606-29.692,3.606-29.692
		s-9.921,15.39-9.467,14.053C33.238,30.453,39.713,9.07,39.713,9.07z"/>
	<path fill="#FAE7CB" d="M123.392,145.16c0,0,2.036,6.493,2.383,7.211c0.349,0.716,13.346-7.527,11.824-12.879
		c-1.521-5.354-6.631-4.051-6.631-4.051L123.392,145.16z"/>
	<linearGradient id="SVGID_22_" gradientUnits="userSpaceOnUse" x1="61.6465" y1="382.3154" x2="96.5557" y2="382.3154">
		<stop  offset="0.1327" style="stop-color:#AC96C6"/>
		<stop  offset="0.9949" style="stop-color:#8470AF"/>
	</linearGradient>
	<path fill="url(#SVGID_22_)" d="M61.646,384.424c0,0,9.023,5.826,34.909-5.69"/>
	<linearGradient id="SVGID_23_" gradientUnits="userSpaceOnUse" x1="28.8213" y1="372.6162" x2="63.7324" y2="372.6162">
		<stop  offset="0.1327" style="stop-color:#AC96C6"/>
		<stop  offset="0.9949" style="stop-color:#8470AF"/>
	</linearGradient>
	<path fill="url(#SVGID_23_)" d="M28.821,374.725c0,0,9.024,5.826,34.911-5.69"/>
	<linearGradient id="SVGID_24_" gradientUnits="userSpaceOnUse" x1="58.1729" y1="286.8057" x2="94.9502" y2="286.8057">
		<stop  offset="0.0051" style="stop-color:#AC96C6"/>
		<stop  offset="0.8673" style="stop-color:#D9C8E2"/>
	</linearGradient>
	<path fill="url(#SVGID_24_)" d="M58.173,199.46c0,0,22.859,58.72,23.367,62.608c0.718,5.509-17.598,106.14-15.656,109.469
		c2.358,4.035,9.229,2.196,9.229,2.196L94.95,263.367c0,0-2.152-4.77-10.632-19.349C76.757,231.018,78.255,233.587,58.173,199.46z"
		/>
	<linearGradient id="SVGID_25_" gradientUnits="userSpaceOnUse" x1="71.9697" y1="189.9668" x2="88.7422" y2="189.9668">
		<stop  offset="0.0051" style="stop-color:#AC96C6"/>
		<stop  offset="0.8673" style="stop-color:#D9C8E2"/>
	</linearGradient>
	<path fill="url(#SVGID_25_)" d="M71.97,172.912c0,0,11.402,30.885,14.408,34.6c3.005,3.714,2.29,1.016,2.29,1.016
		s-8.735-39.89-11.412-38.002S71.97,172.912,71.97,172.912z"/>
	<linearGradient id="SVGID_26_" gradientUnits="userSpaceOnUse" x1="38.3403" y1="281.8721" x2="65.6797" y2="281.8721">
		<stop  offset="0.1327" style="stop-color:#D9C8E2"/>
		<stop  offset="0.457" style="stop-color:#D8C7E1"/>
		<stop  offset="0.8602" style="stop-color:#AC96C6"/>
	</linearGradient>
	<path fill="url(#SVGID_26_)" d="M44.68,200.927c0,0,14.606-3.11,14.902,0.085c1.392,15.034,4.228,59.3,5.923,66.734
		c1.738,7.621-9.95,96.429-15.038,96.429c-5.089,0-8.869-1.839-8.869-1.839s-4.188-139.809-3.066-142.084
		C43.93,209.306,44.68,200.927,44.68,200.927z"/>
	<polygon fill="#917272" points="205.179,191.64 205.179,194.783 215.437,194.783 215.437,191.441 	"/>
</g>
</svg>
