<?xml version="1.0" encoding="utf-8"?>
<!-- Generator: Adobe Illustrator 16.0.0, SVG Export Plug-In . SVG Version: 6.00 Build 0)  -->
<!DOCTYPE svg PUBLIC "-//W3C//DTD SVG 1.1//EN" "http://www.w3.org/Graphics/SVG/1.1/DTD/svg11.dtd">
<svg version="1.1" id="Слой_1" xmlns="http://www.w3.org/2000/svg" xmlns:xlink="http://www.w3.org/1999/xlink" x="0px" y="0px"
	 width="116px" height="265px" viewBox="0 0 116 265" enable-background="new 0 0 116 265" xml:space="preserve">
<g>
	<path fill="#FAE7CB" d="M59.184,210.26c-0.139,0.809-4.319,7.529-5.371,13.952c-1.451,8.9-0.013,18.33-1.44,20.512
		c-2.458,3.757-5.879,0.94-5.879,0.94s-1.276-11.988-2.543-21.329c-0.793-5.854,3.277-11.533,2.987-14.271
		C46.265,203.754,59.184,210.26,59.184,210.26z"/>
	<linearGradient id="SVGID_1_" gradientUnits="userSpaceOnUse" x1="48.292" y1="228.6211" x2="54.7402" y2="228.6211">
		<stop  offset="0.5321" style="stop-color:#FAE7CB"/>
		<stop  offset="0.979" style="stop-color:#C19B6D"/>
	</linearGradient>
	<polygon fill="url(#SVGID_1_)" points="51.507,216.895 54.74,216.895 51.518,239.797 48.292,240.348 	"/>
	<path fill="#5F4D4D" d="M45.796,238.068c0,0,3.623,0.847,5.886,0.928c2.263,0.085,4.415,12.066,5.028,14.831
		c0.615,2.764-8.674,8.295-10.479,3.071C44.422,251.677,45.796,238.068,45.796,238.068z"/>
	<path fill="#FAE7CB" d="M67.835,216.702c1.19,0.595-6.018,15.624-9.351,26.704c-2.098,6.975-0.332,11.36-1.282,12.812
		c-2.457,3.755-6.822-6.979-6.822-6.979c-2.257,6.228,8.014-32.402,5.781-34.679C54.051,212.408,67.835,216.702,67.835,216.702z"/>
	<linearGradient id="SVGID_2_" gradientUnits="userSpaceOnUse" x1="51.5176" y1="231.5684" x2="67.9639" y2="231.5684">
		<stop  offset="0.5321" style="stop-color:#FAE7CB"/>
		<stop  offset="0.979" style="stop-color:#C19B6D"/>
	</linearGradient>
	<polygon fill="url(#SVGID_2_)" points="62.509,216.895 67.964,219.22 56.75,245.488 51.518,246.241 	"/>
	<path fill="#619269" d="M6.246,149.985c0,0,21.48-1.093,23.631-4.922c2.151-3.829,12.537,26.77,10.08,29.507
		c-2.458,2.737-26.909,7.997-29.366,4.613C8.134,175.799,6.246,149.985,6.246,149.985z"/>
	<path fill="#FAE7CB" d="M44.807,38.996h12.696l8.645,10.61c0,0-18.886-0.008-23.391-1.54
		C38.253,46.533,42.758,53.332,44.807,38.996z"/>
	<linearGradient id="SVGID_3_" gradientUnits="userSpaceOnUse" x1="52.6221" y1="41.1699" x2="63.3516" y2="41.1699">
		<stop  offset="0.1128" style="stop-color:#FAE7CB"/>
		<stop  offset="0.979" style="stop-color:#C19B6D"/>
	</linearGradient>
	<polygon fill="url(#SVGID_3_)" points="52.622,36.254 59.051,36.254 63.352,44.701 55.559,46.086 	"/>
	<path fill="#7AB385" d="M53.865,45.325c-13.89,0.451-22.115,2.031-24.859,3.666c-4.83,2.88-5.414,7.202-8.281,15.744
		c-2.867,8.543-2.193,18.988-3.672,24.049c-0.886,3.032,1.512,38.903,0.205,40.14c-0.968,0.917,6.582,1.678,7.373,0.575
		c1.731-2.409-2.947-28.204,0.791-38.053c1.359-3.584,6.991-39.862,9.448-16.588c2.458,23.273,5.276,35.027,6.335,38.068
		c4.625,13.306,7.776,0.998,16.033,2.526c7.373,1.365,14.357-11.967,15.93-19.911c1.549-7.827-0.87-30.729,1.194-31.821
		c2.067-1.092,9.697,18.865,10.926,25.872c1.229,7.006-24.7,14.494-24.7,14.494l2.457,7.987c0,0,31.09-14.877,31.216-17.761
		c0.209-4.711-6.771-37.683-11.893-42.188C69.64,40.926,66.521,44.911,53.865,45.325z"/>
	<path fill="#B8D8BB" d="M40.148,108.533c0,0-4.622,12.021-7.588,26.605c-5.549,27.293-10.923,66.311-8.923,71.687
		c1.207,3.25,16.642,13.511,35.956,13.519c19.996,0.006,26.808-4.925,28.058-5.944c2.458-2.005-13.41-105.068-20.528-105.046
		C60.001,109.374,40.148,108.533,40.148,108.533z"/>
	<path fill="#362227" d="M51.259,0.638c10.856,0,15.361,5.371,17.409,11.229c2.079,5.95,4.096,20.162,9.011,25.296
		c4.915,5.133-18.842,4.026-21.708,3.617c-2.867-0.408-22.203,1.202-26.3-0.846c-4.095-2.049,4.957-26.118,7.868-31.292
		C42.945-0.966,46.073,0.638,51.259,0.638z"/>
	<path fill="#7AB385" d="M39.289,257.021"/>
	<path fill="#7AB385" d="M57.402,251.375"/>
	<path fill="#917272" d="M50.337,243.598c0,0,3.623,0.846,5.886,0.931c2.263,0.082,4.414,12.063,5.029,14.828
		c0.613,2.766-8.675,8.294-10.48,3.071C48.964,257.205,50.337,243.598,50.337,243.598z"/>
	<linearGradient id="SVGID_4_" gradientUnits="userSpaceOnUse" x1="34.7813" y1="12.4912" x2="70.4629" y2="12.4912">
		<stop  offset="0.0859" style="stop-color:#9B7548"/>
		<stop  offset="0.9844" style="stop-color:#362227"/>
	</linearGradient>
	<path opacity="0.4" fill="url(#SVGID_4_)" d="M46.568,1.87c4.905-0.913,12.436-0.511,16.1,4.204
		c4.242,5.456,14.254,25.995,1.653,11.828c-8.451-9.503-9.839,6.512-12.288,3.413c-1.254-1.589-4.809-10.939-9.109-2.799
		c-1.434,2.71-0.069-7.681-0.069-7.681l-8.073,12.901c0,0,0.734-12.604,5.938-17.663C48.144-1.145,46.568,1.87,46.568,1.87z"/>
	<linearGradient id="SVGID_5_" gradientUnits="userSpaceOnUse" x1="57.3574" y1="82.6685" x2="74.9355" y2="82.6685">
		<stop  offset="0.0913" style="stop-color:#7AB385"/>
		<stop  offset="0.979" style="stop-color:#619269"/>
	</linearGradient>
	<path fill="url(#SVGID_5_)" d="M74.933,60.263c0,0,0.356,44.087-6.162,44.004c-6.52-0.08-10.214,0.808-10.214,0.808
		s3.828-5.897,5.364-11.709c1.536-5.81-7.679-10.055-6.45-10.695c1.229-0.643,10.444-3.783,11.059-5.133
		c0.614-1.348-8.294-6.787-6.451-6.833c1.843-0.044,8.953-7.297,8.953-7.297L74.933,60.263z"/>
	<linearGradient id="SVGID_6_" gradientUnits="userSpaceOnUse" x1="36.333" y1="94.2266" x2="45.5752" y2="94.2266">
		<stop  offset="0.0913" style="stop-color:#7AB385"/>
		<stop  offset="0.979" style="stop-color:#619269"/>
	</linearGradient>
	<path fill="url(#SVGID_6_)" d="M36.333,84.782c0,0,5.516,15.681,8.587,17.901c3.073,2.22-5.661,0-5.661,0L36.333,84.782z"/>
	<linearGradient id="SVGID_7_" gradientUnits="userSpaceOnUse" x1="49.5659" y1="96.3408" x2="55.7402" y2="96.3408">
		<stop  offset="0.0913" style="stop-color:#7AB385"/>
		<stop  offset="0.979" style="stop-color:#619269"/>
	</linearGradient>
	<path fill="url(#SVGID_7_)" d="M52.622,89.466c0,0,1.689,5.872,2.937,10.765c1.236,4.844-4.188,4.731-5.723,3.441
		c-1.536-1.292,4.036-12.043,2.786-15.422"/>
	<linearGradient id="SVGID_8_" gradientUnits="userSpaceOnUse" x1="74.9355" y1="77.188" x2="89.0791" y2="77.188">
		<stop  offset="0.021" style="stop-color:#619269"/>
		<stop  offset="0.9087" style="stop-color:#7AB385"/>
	</linearGradient>
	<path fill="url(#SVGID_8_)" d="M74.936,61.675c0,0,18.967,22.417,12.972,27.791s-3.121,2.432-3.121,2.432L74.936,61.675z"/>
	<linearGradient id="SVGID_9_" gradientUnits="userSpaceOnUse" x1="116.8047" y1="51.3867" x2="116.8047" y2="51.3867">
		<stop  offset="0.0913" style="stop-color:#7AB385"/>
		<stop  offset="0.979" style="stop-color:#619269"/>
	</linearGradient>
	<path fill="url(#SVGID_9_)" d="M116.805,51.387"/>
	<linearGradient id="SVGID_10_" gradientUnits="userSpaceOnUse" x1="69.7109" y1="97.3252" x2="88.3105" y2="97.3252">
		<stop  offset="0.021" style="stop-color:#619269"/>
		<stop  offset="0.9087" style="stop-color:#7AB385"/>
	</linearGradient>
	<path fill="url(#SVGID_10_)" d="M84.786,91.897c0,0,4.943-1.81,3.121,0.804c-1.823,2.613-15.754,9.325-17.444,10.445
		c-1.692,1.12,0-2.465,0-2.465L84.786,91.897z"/>
	<linearGradient id="SVGID_11_" gradientUnits="userSpaceOnUse" x1="20.7163" y1="96.0195" x2="32.3984" y2="96.0195">
		<stop  offset="0.0913" style="stop-color:#7AB385"/>
		<stop  offset="0.979" style="stop-color:#619269"/>
	</linearGradient>
	<path fill="url(#SVGID_11_)" d="M32.398,66.864c0,0-7.505,19.484-6.977,24.582c0.526,5.097-1.822,10.855-1.698,16.28
		c0.122,5.424-0.533,9.589-0.007,13.793c0.529,4.204-1.455,4.42-2.685,2.47c-1.229-1.949,1.595-21.941,0.54-29.763
		C20.521,86.407,31.477,68.214,32.398,66.864z"/>
	<linearGradient id="SVGID_12_" gradientUnits="userSpaceOnUse" x1="17.6553" y1="123.8052" x2="22.4385" y2="123.8052">
		<stop  offset="0.021" style="stop-color:#619269"/>
		<stop  offset="0.9087" style="stop-color:#7AB385"/>
	</linearGradient>
	<path fill="url(#SVGID_12_)" d="M20.17,121.887c0.59,0.761-2.424,2.737,1.25,3.287c3.673,0.55-3.765,0.55-3.765,0.55L20.17,121.887
		z"/>
	<linearGradient id="SVGID_13_" gradientUnits="userSpaceOnUse" x1="31.7656" y1="46.4336" x2="76.4688" y2="46.4336">
		<stop  offset="0.0913" style="stop-color:#7AB385"/>
		<stop  offset="0.979" style="stop-color:#619269"/>
	</linearGradient>
	<path fill="url(#SVGID_13_)" d="M36.333,46.867l-4.567,1.02c0,0,41.198,0.986,44.026,0.582c3.219-0.463-6.081-4.168-6.081-4.168
		L36.333,46.867z"/>
	<linearGradient id="SVGID_14_" gradientUnits="userSpaceOnUse" x1="56.7402" y1="164.4375" x2="89.4473" y2="164.4375">
		<stop  offset="0.4032" style="stop-color:#B8D8BB"/>
		<stop  offset="0.9302" style="stop-color:#73B47B"/>
	</linearGradient>
	<path fill="url(#SVGID_14_)" d="M59.492,109.658c0,0,8.493,0.552,9.603,0c1.112-0.552,19.601,98.947,20.293,101.631
		c0.691,2.686-4.714,7.952-12.61,7.931c-7.895-0.023-8.086-4.939-2.308-13.232c5.778-8.294-6.966-12.595-12.882-13.823
		c-5.916-1.229,9.183-16.072,9.183-16.072s-7.874-9.78-9.183-9.911c-1.308-0.129,6.686-21.397,6.686-21.397L56.74,135.53
		l4.848-15.556L59.492,109.658z"/>
	<linearGradient id="SVGID_15_" gradientUnits="userSpaceOnUse" x1="67.9609" y1="109.2666" x2="67.9609" y2="140.5308">
		<stop  offset="0.0698" style="stop-color:#73B47B"/>
		<stop  offset="1" style="stop-color:#B8D8BB"/>
	</linearGradient>
	<path fill="url(#SVGID_15_)" d="M62.509,109.267c3.903,7.072,10.892,27.655,10.893,27.722c0.263,8.473-3.69-0.919-6.461-0.905
		C64.169,136.094,62.509,109.267,62.509,109.267z"/>
	
		<linearGradient id="SVGID_16_" gradientUnits="userSpaceOnUse" x1="61.9668" y1="236.3516" x2="62.6526" y2="283.0223" gradientTransform="matrix(0.9998 0.0205 -0.0147 0.7161 -1.7085 -62.002)">
		<stop  offset="0" style="stop-color:#78B981"/>
		<stop  offset="0.8602" style="stop-color:#B5D7B8"/>
	</linearGradient>
	<path fill="url(#SVGID_16_)" d="M54.658,108.498c0,0,5.199,20.641,5.289,29.018c0.089,8.378-2.294,2.392-5.063,2.347
		C52.113,139.818,54.658,108.498,54.658,108.498z"/>
	<linearGradient id="SVGID_17_" gradientUnits="userSpaceOnUse" x1="40.8247" y1="140.2588" x2="40.8247" y2="108.9351">
		<stop  offset="0" style="stop-color:#B8D8BB"/>
		<stop  offset="0.9302" style="stop-color:#73B47B"/>
	</linearGradient>
	<path fill="url(#SVGID_17_)" d="M45.163,108.935c0,0-2.49,18.768-2.29,27.135c0.196,8.369-4.004,1.61-6.107,1.624
		C34.662,137.704,45.163,108.935,45.163,108.935z"/>
	<linearGradient id="SVGID_18_" gradientUnits="userSpaceOnUse" x1="56.2227" y1="253.6191" x2="61.252" y2="253.6191">
		<stop  offset="0.0483" style="stop-color:#917272"/>
		<stop  offset="0.9629" style="stop-color:#5F4D4D"/>
	</linearGradient>
	<path fill="url(#SVGID_18_)" d="M56.223,244.528l5.029,14.828c0,0-1.133,2.621-2.242,3.333
		C57.899,263.398,56.223,244.528,56.223,244.528z"/>
	<path fill="#4A704F" d="M13.609,150.361l-0.74,29.62c0,0-12.665-3.488-11.957-8.603c0.707-5.114,5.046-21.813,5.046-21.813
		L13.609,150.361z"/>
	<path fill="#FAE7CB" d="M17.655,125.724c0,0,7.476,1.524,7.438,0c-0.037-1.526,1.677,7.96,0,11.97
		c-1.675,4.008-10.585,4.96-10.585,2.486C14.508,137.708,17.655,125.724,17.655,125.724z"/>
	<linearGradient id="SVGID_19_" gradientUnits="userSpaceOnUse" x1="20.7158" y1="133.3711" x2="25.8584" y2="133.3711">
		<stop  offset="0.3978" style="stop-color:#FAE7CB"/>
		<stop  offset="0.9195" style="stop-color:#BAA080"/>
	</linearGradient>
	<path fill="url(#SVGID_19_)" d="M20.716,126.22c0,0,4.251,0.494,4.313,0c0.063-0.496,1.488,7.873,0.454,10.192
		c-1.031,2.317-2.091,3.579-3.554,4.115C20.468,141.063,23.219,127.567,20.716,126.22z"/>
	<path fill="#4A704F" d="M10.467,150.219c0.461-0.924,2.122-17.579,7.575-16.812c5.454,0.771,8.999,11.159,10.583,12.762
		c1.584,1.604-4.429,1.375-4.429,1.375s-1.808-10.911-4.403-11.063c-2.595-0.153-6.184,13.881-6.184,13.881"/>
</g>
</svg>
