<svg  viewBox="0 0 32 32" fill="none" xmlns="http://www.w3.org/2000/svg">
<path class="MyRect" d="M3.033 19H1.38527L3.89592 11.7273H5.87746L8.38456 19H6.73683L4.9151 13.3892H4.85828L3.033 19ZM2.93001 16.1413H6.82206V17.3416H2.93001V16.1413ZM13.6721 11.7273H15.2097V16.4503C15.2097 16.9806 15.0831 17.4446 14.8298 17.8423C14.5788 18.2401 14.2273 18.5502 13.7751 18.7727C13.3229 18.9929 12.7962 19.103 12.1948 19.103C11.5911 19.103 11.0632 18.9929 10.611 18.7727C10.1588 18.5502 9.80728 18.2401 9.55634 17.8423C9.30539 17.4446 9.17991 16.9806 9.17991 16.4503V11.7273H10.7176V16.3189C10.7176 16.5959 10.7779 16.8421 10.8987 17.0575C11.0218 17.273 11.1946 17.4422 11.4171 17.5653C11.6397 17.6884 11.8989 17.75 12.1948 17.75C12.4931 17.75 12.7524 17.6884 12.9725 17.5653C13.1951 17.4422 13.3667 17.273 13.4874 17.0575C13.6105 16.8421 13.6721 16.5959 13.6721 16.3189V11.7273ZM16.1178 12.995V11.7273H22.0909V12.995H19.8643V19H18.3444V12.995H16.1178ZM29.3457 15.3636C29.3457 16.1567 29.1954 16.8314 28.8947 17.3878C28.5964 17.9441 28.1892 18.3691 27.6731 18.6626C27.1594 18.9538 26.5818 19.0994 25.9402 19.0994C25.2939 19.0994 24.7139 18.9527 24.2001 18.6591C23.6864 18.3655 23.2804 17.9406 22.9821 17.3842C22.6838 16.8279 22.5347 16.1544 22.5347 15.3636C22.5347 14.5705 22.6838 13.8958 22.9821 13.3395C23.2804 12.7831 23.6864 12.3594 24.2001 12.0682C24.7139 11.7746 25.2939 11.6278 25.9402 11.6278C26.5818 11.6278 27.1594 11.7746 27.6731 12.0682C28.1892 12.3594 28.5964 12.7831 28.8947 13.3395C29.1954 13.8958 29.3457 14.5705 29.3457 15.3636ZM27.7868 15.3636C27.7868 14.8499 27.7098 14.4167 27.556 14.0639C27.4044 13.7112 27.1902 13.4437 26.9132 13.2614C26.6362 13.0791 26.3119 12.9879 25.9402 12.9879C25.5685 12.9879 25.2442 13.0791 24.9672 13.2614C24.6902 13.4437 24.4748 13.7112 24.3209 14.0639C24.1694 14.4167 24.0936 14.8499 24.0936 15.3636C24.0936 15.8774 24.1694 16.3106 24.3209 16.6634C24.4748 17.0161 24.6902 17.2836 24.9672 17.4659C25.2442 17.6482 25.5685 17.7393 25.9402 17.7393C26.3119 17.7393 26.6362 17.6482 26.9132 17.4659C27.1902 17.2836 27.4044 17.0161 27.556 16.6634C27.7098 16.3106 27.7868 15.8774 27.7868 15.3636Z" fill="white"/>
</svg>
