<svg viewBox="0 0 32 32" fill="none" xmlns="http://www.w3.org/2000/svg">
<circle cx="16" cy="16" r="6.1" fill="black" stroke="black" stroke-width="0.8"/>
<path d="M17 3C17 2.44772 16.5523 2 16 2C15.4477 2 15 2.44772 15 3H17ZM15 3V7.5H17V3H15Z" fill="black"/>
<path d="M8.04045 6.62621C7.64993 6.23569 7.01676 6.23569 6.62624 6.62621C6.23571 7.01674 6.23571 7.6499 6.62624 8.04043L8.04045 6.62621ZM6.62624 8.04043L9.80822 11.2224L11.2224 9.80819L8.04045 6.62621L6.62624 8.04043Z" fill="black"/>
<path d="M25.6366 8.04043C26.0272 7.6499 26.0272 7.01674 25.6366 6.62621C25.2461 6.23569 24.6129 6.23569 24.2224 6.62621L25.6366 8.04043ZM24.2224 6.62621L21.0404 9.80819L22.4546 11.2224L25.6366 8.04043L24.2224 6.62621Z" fill="black"/>
<path d="M6.62624 24.2224C6.23571 24.6129 6.23571 25.2461 6.62624 25.6366C7.01676 26.0272 7.64993 26.0272 8.04045 25.6366L6.62624 24.2224ZM8.04045 25.6366L11.2224 22.4546L9.80822 21.0404L6.62624 24.2224L8.04045 25.6366Z" fill="black"/>
<path d="M24.2224 25.6366C24.6129 26.0272 25.2461 26.0272 25.6366 25.6366C26.0272 25.2461 26.0272 24.6129 25.6366 24.2224L24.2224 25.6366ZM25.6366 24.2224L22.4546 21.0404L21.0404 22.4546L24.2224 25.6366L25.6366 24.2224Z" fill="black"/>
<path d="M3 15C2.44772 15 2 15.4477 2 16C2 16.5523 2.44772 17 3 17V15ZM3 17H7.5V15H3V17Z" fill="black"/>
<path d="M29 17C29.5523 17 30 16.5523 30 16C30 15.4477 29.5523 15 29 15V17ZM29 15H24.5V17H29V15Z" fill="black"/>
<path d="M15 29C15 29.5523 15.4477 30 16 30C16.5523 30 17 29.5523 17 29H15ZM15 24.5V29H17V24.5H15Z" fill="black"/>
</svg>
