<svg width="130" height="125" viewBox="0 0 130 125" fill="none" xmlns="http://www.w3.org/2000/svg">
<path d="M14.3558 143C10.4079 143 7.02834 141.6 4.217 138.799C1.40567 135.999 0 132.632 0 128.7V28.6C0 24.6675 1.40567 21.301 4.217 18.5006C7.02834 15.7002 10.4079 14.3 14.3558 14.3H21.5336V0H35.8894V14.3H93.3124V0H107.668V14.3H114.846C118.794 14.3 122.173 15.7002 124.985 18.5006C127.796 21.301 129.202 24.6675 129.202 28.6V128.7C129.202 132.632 127.796 135.999 124.985 138.799C122.173 141.6 118.794 143 114.846 143H14.3558ZM14.3558 128.7H114.846V57.2H14.3558V128.7ZM14.3558 42.9H114.846V28.6H14.3558V42.9ZM64.6009 85.8C62.5671 85.8 60.8624 85.1148 59.4866 83.7444C58.1109 82.374 57.423 80.6758 57.423 78.65C57.423 76.6242 58.1109 74.926 59.4866 73.5556C60.8624 72.1852 62.5671 71.5 64.6009 71.5C66.6346 71.5 68.3394 72.1852 69.7151 73.5556C71.0909 74.926 71.7787 76.6242 71.7787 78.65C71.7787 80.6758 71.0909 82.374 69.7151 83.7444C68.3394 85.1148 66.6346 85.8 64.6009 85.8ZM35.8894 85.8C33.8556 85.8 32.1509 85.1148 30.7751 83.7444C29.3994 82.374 28.7115 80.6758 28.7115 78.65C28.7115 76.6242 29.3994 74.926 30.7751 73.5556C32.1509 72.1852 33.8556 71.5 35.8894 71.5C37.9231 71.5 39.6279 72.1852 41.0036 73.5556C42.3794 74.926 43.0672 76.6242 43.0672 78.65C43.0672 80.6758 42.3794 82.374 41.0036 83.7444C39.6279 85.1148 37.9231 85.8 35.8894 85.8ZM93.3124 85.8C91.2786 85.8 89.5739 85.1148 88.1981 83.7444C86.8224 82.374 86.1345 80.6758 86.1345 78.65C86.1345 76.6242 86.8224 74.926 88.1981 73.5556C89.5739 72.1852 91.2786 71.5 93.3124 71.5C95.3461 71.5 97.0508 72.1852 98.4266 73.5556C99.8024 74.926 100.49 76.6242 100.49 78.65C100.49 80.6758 99.8024 82.374 98.4266 83.7444C97.0508 85.1148 95.3461 85.8 93.3124 85.8ZM64.6009 114.4C62.5671 114.4 60.8624 113.715 59.4866 112.344C58.1109 110.974 57.423 109.276 57.423 107.25C57.423 105.224 58.1109 103.526 59.4866 102.156C60.8624 100.785 62.5671 100.1 64.6009 100.1C66.6346 100.1 68.3394 100.785 69.7151 102.156C71.0909 103.526 71.7787 105.224 71.7787 107.25C71.7787 109.276 71.0909 110.974 69.7151 112.344C68.3394 113.715 66.6346 114.4 64.6009 114.4ZM35.8894 114.4C33.8556 114.4 32.1509 113.715 30.7751 112.344C29.3994 110.974 28.7115 109.276 28.7115 107.25C28.7115 105.224 29.3994 103.526 30.7751 102.156C32.1509 100.785 33.8556 100.1 35.8894 100.1C37.9231 100.1 39.6279 100.785 41.0036 102.156C42.3794 103.526 43.0672 105.224 43.0672 107.25C43.0672 109.276 42.3794 110.974 41.0036 112.344C39.6279 113.715 37.9231 114.4 35.8894 114.4ZM93.3124 114.4C91.2786 114.4 89.5739 113.715 88.1981 112.344C86.8224 110.974 86.1345 109.276 86.1345 107.25C86.1345 105.224 86.8224 103.526 88.1981 102.156C89.5739 100.785 91.2786 100.1 93.3124 100.1C95.3461 100.1 97.0508 100.785 98.4266 102.156C99.8024 103.526 100.49 105.224 100.49 107.25C100.49 109.276 99.8024 110.974 98.4266 112.344C97.0508 113.715 95.3461 114.4 93.3124 114.4Z" fill="#8182BD" fill-opacity="0.2"/>
</svg>
