<svg width="93" height="93" viewBox="0 0 93 93" fill="none" xmlns="http://www.w3.org/2000/svg">
<path opacity="0.1" d="M46.5 69.75C47.8175 69.75 48.9219 69.3044 49.8131 68.4131C50.7044 67.5219 51.15 66.4175 51.15 65.1C51.15 63.7825 50.7044 62.6781 49.8131 61.7869C48.9219 60.8956 47.8175 60.45 46.5 60.45C45.1825 60.45 44.0781 60.8956 43.1869 61.7869C42.2956 62.6781 41.85 63.7825 41.85 65.1C41.85 66.4175 42.2956 67.5219 43.1869 68.4131C44.0781 69.3044 45.1825 69.75 46.5 69.75ZM41.85 51.15H51.15V23.25H41.85V51.15ZM46.5 93C40.0675 93 34.0225 91.7794 28.365 89.3381C22.7075 86.8969 17.7862 83.5838 13.6012 79.3988C9.41625 75.2138 6.10313 70.2925 3.66188 64.635C1.22062 58.9775 0 52.9325 0 46.5C0 40.0675 1.22062 34.0225 3.66188 28.365C6.10313 22.7075 9.41625 17.7862 13.6012 13.6012C17.7862 9.41625 22.7075 6.10313 28.365 3.66188C34.0225 1.22062 40.0675 0 46.5 0C52.9325 0 58.9775 1.22062 64.635 3.66188C70.2925 6.10313 75.2138 9.41625 79.3988 13.6012C83.5838 17.7862 86.8969 22.7075 89.3381 28.365C91.7794 34.0225 93 40.0675 93 46.5C93 52.9325 91.7794 58.9775 89.3381 64.635C86.8969 70.2925 83.5838 75.2138 79.3988 79.3988C75.2138 83.5838 70.2925 86.8969 64.635 89.3381C58.9775 91.7794 52.9325 93 46.5 93ZM46.5 83.7C56.885 83.7 65.6812 80.0962 72.8887 72.8887C80.0962 65.6812 83.7 56.885 83.7 46.5C83.7 36.115 80.0962 27.3187 72.8887 20.1112C65.6812 12.9037 56.885 9.3 46.5 9.3C36.115 9.3 27.3187 12.9037 20.1112 20.1112C12.9037 27.3187 9.3 36.115 9.3 46.5C9.3 56.885 12.9037 65.6812 20.1112 72.8887C27.3187 80.0962 36.115 83.7 46.5 83.7Z" fill="#F2E6E2"/>
</svg>
