<svg width="180" height="270" viewBox="0 0 180 270" fill="none" xmlns="http://www.w3.org/2000/svg">
<path d="M176.183 160.516L178.731 169.163L174.815 173.614L173.505 172.429L175.349 167.065L174.055 164.221L171.324 166.884L170.722 166.716L174.727 160.516H176.183Z" fill="#FAE7CB"/>
<path d="M90.5884 110.756C90.5884 110.756 84.6574 101.666 84.9354 98.9415C85.1014 97.3096 90.367 100.955 91.0257 98.9415C91.6844 96.9276 94.8766 108.621 93.4399 110.469C91.3744 113.123 90.5884 110.756 90.5884 110.756Z" fill="#FAE7CB"/>
<path d="M124.254 100.615C127.013 100.72 152.875 91.1103 156.678 101.286C161.125 113.182 164.711 126.746 165.956 128.254C170.403 133.64 171.348 141.728 172.728 147.786C174.108 153.843 179.026 162.839 179.716 162.483C180.408 162.126 170.329 162.844 169.984 164.625C169.64 166.407 163.647 146.37 162.373 141.104C161.336 136.828 152.536 118.389 152.536 118.389C152.536 118.389 150.206 158.297 149.171 163.017C148.138 167.723 134.962 167.561 132.085 161.682C128.629 154.62 127.369 123.082 123.244 116.519C122.208 114.871 119.102 128.254 114.702 135.492C108.634 145.47 89.865 113.484 90.2104 112.217C90.5557 110.95 95.7547 104.61 96.0634 105.681C96.4161 106.91 103.512 123.167 105.253 124.001C108.877 125.738 110.172 128.254 110.172 128.254C110.172 128.254 114.935 100.26 124.254 100.615Z" fill="#F6DEE0"/>
<path d="M133.304 113.821L126.708 101.123L119.99 104.248L127.795 113.821H133.304Z" fill="#E8AAAD"/>
<path d="M145.307 114.38L152.355 102.322L158.249 104.623L149.242 113.415L145.307 114.38Z" fill="#E8AAAD"/>
<path d="M128.433 141.66C128.433 141.66 147.627 145.251 150.785 139.839C151.437 138.721 151.669 150.756 149.769 150.817C148.664 150.851 145.063 145.292 145.063 145.292L128.433 141.66Z" fill="url(#paint0_linear_20_449)"/>
<path d="M148.31 196.067C148.31 196.067 147.742 221.935 147.543 228.758C147.33 236.092 145.991 261.738 144.954 265.746C143.918 269.755 138.712 265.531 138.712 265.531C138.712 265.531 140.242 233.442 141.536 227.294C142.859 221.007 139.977 199.424 138.712 197.202C137.448 194.982 148.31 196.067 148.31 196.067Z" fill="#FAE7CB"/>
<path d="M135.876 195.413C135.876 195.413 134.556 219.138 133.261 227.422C132.13 234.666 131.734 260.936 130.699 264.946C129.664 268.953 125.412 264.166 125.412 264.166C126.449 234.606 126.271 234.684 126.271 226.887C126.271 221.008 126.572 195.186 125.308 192.965C124.043 190.744 135.876 195.413 135.876 195.413Z" fill="#FAE7CB"/>
<path d="M135.6 198.969C135.6 198.969 131.094 252.236 130.899 254.167C130.702 256.099 132.591 193.72 126.776 193.906C120.961 194.093 135.6 198.969 135.6 198.969Z" fill="url(#paint1_linear_20_449)"/>
<path d="M150.595 150.36C150.595 150.36 162.761 189.688 168.734 194.403C173.136 197.877 141.037 202.42 135.601 200.015C132.27 198.541 109.479 191.998 106.608 186.385C104.449 182.163 127.882 158.892 128.582 151.348C129.284 143.803 137.626 153.665 150.595 150.36Z" fill="#E8AAAD"/>
<path d="M124.712 255.213C124.712 255.213 129.057 253.339 130.899 255.213C132.998 257.351 131.831 268.309 131.831 268.309C131.831 268.309 126.525 271.247 126.008 269.377C125.49 267.507 124.712 255.213 124.712 255.213Z" fill="#E8AAAD"/>
<path d="M139.728 252.542C139.728 252.542 144.214 251.327 146.057 253.203C148.156 255.34 144.959 267.094 144.959 267.094C144.959 267.094 139.234 268.751 138.718 266.88C138.198 265.01 139.728 252.542 139.728 252.542Z" fill="#E8AAAD"/>
<path d="M122.855 113.182C122.855 113.182 130.327 113.066 137.362 113.357C144.142 113.638 154.589 110.63 154.221 116.709C153.445 129.537 155.525 136.949 154.229 141.193C152.937 145.438 134.936 145.511 125.412 143.327C123.433 142.873 122.855 113.182 122.855 113.182Z" fill="#E8AAAD"/>
<path d="M169.135 193.916C169.135 193.916 164.983 191.978 160.496 195.001C156.009 198.025 149.394 201.655 144.59 200.642C139.786 199.628 136.186 193.477 129.357 192.366C122.528 191.256 119.855 194.217 116.188 192.366C112.519 190.516 108.562 182.114 108.036 183.506C107.511 184.9 106.479 185.732 106.479 185.732C106.479 185.732 145.554 212.455 168.737 195.001L169.135 193.916Z" fill="url(#paint2_linear_20_449)"/>
<path d="M152.954 113.821L144.22 126.663C144.22 126.663 141.859 129.972 140.673 130.149C139.485 130.327 143.8 129.793 143.627 132.287C143.455 134.78 143.449 135.85 142.503 136.205C141.556 136.563 144.088 136.043 145.67 137.371C147.252 138.7 145.496 140.908 144.318 142.085C143.139 143.261 151.638 144.494 153.789 141.951C155.939 139.407 152.954 113.821 152.954 113.821Z" fill="url(#paint3_linear_20_449)"/>
<path d="M124.858 113.821L151.778 113.415C151.778 113.415 149.49 128.631 148.456 131.27C148.194 131.938 133.303 133.68 130.546 129.932C127.396 125.649 124.858 113.821 124.858 113.821Z" fill="#F6DEE0"/>
<path d="M129.925 148.668C129.925 148.668 147.523 152.751 149.77 149.999C152.016 147.246 161.262 190.199 169.342 193.814C170.218 194.204 140.512 193.446 143.673 189.524C148.844 183.111 150.697 173.133 150.697 173.133L139.387 171.949L141.803 158.881C149.198 159.668 132.254 146.249 126.853 156.019C126.199 157.204 129.925 148.668 129.925 148.668Z" fill="url(#paint4_linear_20_449)"/>
<path opacity="0.5" d="M149.242 113.415L151.778 115.654C151.778 115.654 159.507 133.818 164.876 147.011C168.642 156.262 167.411 158.72 168.39 160.544C168.892 161.477 177.973 161.316 177.973 161.316L173.969 156.781V151.08L169.72 137.989L166.128 135.58L164.371 129.888L161.496 126.739V121.506L158.848 120.436L156.81 115.894L149.242 113.415Z" fill="url(#paint5_linear_20_449)"/>
<path d="M127.903 73.8952C124.927 78.1701 126.221 99.5486 119.491 99.8163C112.76 100.083 132.729 109.306 136.716 109.889C148.527 111.614 170.03 101.112 160.52 99.1487C151.459 97.2773 152.623 76.0337 149.518 72.5579C149.059 72.0438 145.117 67.8749 138.561 67.8818C133.743 67.8866 129.318 71.8662 127.903 73.8952Z" fill="#5F4D4D"/>
<path d="M127.93 73.9392C127.93 73.9392 133.722 67.698 137.8 67.8845C141.877 68.071 148.126 70.0415 150.194 73.7279C152.263 77.4143 147.962 88.9828 147.962 88.9828L141.429 77.5052L132.601 87.6077L132.198 75.8994L124.858 94.3335L127.93 73.9392Z" fill="url(#paint6_linear_20_449)"/>
<path d="M148.456 200.69C148.456 200.69 146.311 250.172 146.116 252.104C145.92 254.036 145.661 200.502 139.845 200.69C134.03 200.876 148.456 200.69 148.456 200.69Z" fill="url(#paint7_linear_20_449)"/>
<path d="M143.828 252.33C143.828 252.33 146.999 253.308 147.065 255.069C147.132 256.83 144.798 266.185 145.142 266.404C145.486 266.624 143.059 267.598 143.059 267.598C143.059 267.598 145.127 252.347 143.828 252.33Z" fill="url(#paint8_linear_20_449)"/>
<path d="M129.311 254.556C129.311 254.556 132.482 255.536 132.547 257.295C132.614 259.055 131.831 268.309 130.625 268.63C130.233 268.734 129.781 269.061 129.781 269.061C129.781 269.061 130.609 254.575 129.311 254.556Z" fill="url(#paint9_linear_20_449)"/>
<path d="M175.349 167.065V162.737L174.055 164.221L175.349 167.065Z" fill="url(#paint10_linear_20_449)"/>
<path opacity="0.5" d="M122.855 113.182L123.244 116.519C123.244 116.519 116.103 135.868 113.784 136.575C111.464 137.282 111.855 133.756 111.467 133.623C111.078 133.489 112.502 128.519 114.314 128.799C116.125 129.079 117.615 124.269 117.324 123.601C117.032 122.933 118.418 117.989 119.99 117.453C121.562 116.919 122.855 113.182 122.855 113.182Z" fill="url(#paint11_linear_20_449)"/>
<path opacity="0.5" d="M94.252 107.472C94.252 107.472 104.177 123.364 105.254 123.974C106.48 124.668 110.173 128.227 110.173 128.227C110.173 128.227 109.209 130.213 108.637 129.897C106.469 128.703 91.8172 109.517 93.4759 108.351C95.1327 107.186 94.252 107.472 94.252 107.472Z" fill="url(#paint12_linear_20_449)"/>
<path d="M43.6343 254.97C45.8965 257.245 41.2669 262.155 40.9255 264.948C40.5835 267.742 63.0241 265.121 66.631 258.571C70.2372 252.02 63.8261 250.365 60.62 250.365C57.4138 250.365 54.2083 254.916 52.6055 255.329C51.0014 255.743 43.6343 254.97 43.6343 254.97Z" fill="#AC96C6"/>
<path d="M21.7538 248.391C24.0173 250.667 19.387 255.576 19.045 258.369C18.7023 261.162 41.1443 258.542 44.7512 251.991C48.358 245.441 41.945 243.785 38.7395 243.785C35.5333 243.785 32.3278 248.336 30.725 248.751C29.1216 249.164 21.7538 248.391 21.7538 248.391Z" fill="#AC96C6"/>
<path d="M51.1469 116.651C51.1469 116.651 55.0511 123.885 56.8679 134.309C60.2334 153.631 70.852 179.509 69.8519 182.998C68.4358 187.94 57.2079 255.937 58.4159 258.209C60.0634 261.309 43.7511 256.078 43.7511 256.078C43.7511 256.078 47.4346 251.536 47.1473 238.91C46.6619 217.753 55.2178 187.464 55.0244 184.032C54.4264 173.325 41.5376 147.549 39.5335 139.766C37.5287 131.984 39.5335 147.213 39.5335 147.213C39.5335 147.213 41.069 163.546 42.1243 174.305C42.8464 181.673 44.2845 185.502 42.9724 188.464C39.3655 196.608 38.5728 255.86 30.765 253.623C25.9894 252.255 21.6732 251.631 21.6732 251.631C22.2905 231.853 23.1506 220.329 24.732 210.931C27.6842 193.386 26.4494 196.899 25.7187 181.195C25.1534 169.045 23.7953 153.626 21.8112 138.017C20.7185 129.421 26.4481 119.897 26.9728 115.271L51.1469 116.651Z" fill="#D9C8E2"/>
<path d="M38.6894 49.9791C39.5915 49.9791 54.3897 53.7054 60.8847 60.3231C67.4944 67.0572 65.2083 89.0338 64.8456 100.173C64.6269 106.862 83.4633 94.8793 83.4633 94.8793L85.9441 108.882C85.9441 108.882 60.37 110.169 57.1425 107.996C53.913 105.825 53.2983 68.2527 52.5622 70.7925C51.4702 74.5635 51.6322 114.126 51.3322 117.727C51.0315 121.329 26.9861 118.848 26.9861 118.848C26.9861 118.848 18.9783 69.2026 22.2612 69.4207C25.3553 69.6272 18.7296 78.455 10.2058 88.5754C8.10567 91.069 29.8629 104.923 30.1636 105.583C30.465 106.242 29.2622 113.997 29.2622 113.997C29.2622 113.997 -0.882841 96.1051 0.0198772 91.451C0.921262 86.7962 14.7474 54.2175 21.3851 51.9069C23.2752 51.2482 38.6894 49.9791 38.6894 49.9791Z" fill="#AC96C6"/>
<path d="M83.4633 94.7692C83.4633 94.7692 81.0578 98.8864 82.0599 101.784C83.0619 104.68 85.0187 108.93 85.9441 108.769C86.8688 108.611 83.17 109.248 85.0187 108.929C86.8682 108.61 86.8682 108.61 86.8682 108.61" fill="#8473B1"/>
<path d="M54.6357 72.0568C54.6357 72.0568 53.1156 101.456 56.6478 106.612C61.1127 113.132 60.6047 100.901 60.6047 100.901C60.6047 100.901 63.3795 71.0141 57.7019 68.8082C54.825 67.689 54.6357 72.0568 54.6357 72.0568Z" fill="url(#paint13_linear_20_449)"/>
<path d="M44.3164 71.7478C41.5116 76.2043 44.1691 79.5142 39.4348 80.5487C34.6992 81.5825 41.4816 80.7545 43.299 83.9612C45.1185 87.1685 43.7684 88.9133 39.4348 90.5232C35.0999 92.1324 44.4864 91.0208 43.299 95.4024C42.1136 99.786 42.2936 101.505 37.9967 102.404C33.6978 103.303 43.485 99.713 43.299 104.713C43.1157 109.716 45.7205 110.956 40.6109 112.403C35.5013 113.852 53.6243 114.401 51.4755 115.781C49.3267 117.161 54.8304 73.0837 54.6837 71.7471C54.5363 70.4125 44.3164 71.7478 44.3164 71.7478Z" fill="url(#paint14_linear_20_449)"/>
<path d="M10.1691 89.4584L22.7032 100.242C22.7032 100.242 19.4283 100.388 20.3024 103.767C21.1758 107.146 7.07563 90.2499 5.65088 92.3753" fill="url(#paint15_linear_20_449)"/>
<path d="M21.8811 73.4589C16.0528 83.9661 5.61219 87.8335 8.76037 89.1818C12.3166 90.7029 7.71631 85.4741 7.71631 85.4741" fill="url(#paint16_linear_20_449)"/>
<path d="M63.7949 59.0842C71.356 71.3293 67.0938 72.7609 56.3905 71.2942C49.8788 70.4036 42.6477 72.9007 38.7935 72.3246C35.0466 71.7636 27.9882 68.0573 21.5505 69.3092C11.1632 71.3293 5.29823 61.0169 8.67243 62.0844C13.8681 63.7294 21.8958 8.71635 28.2075 4.47245C30.0563 3.22805 33.9179 -0.353039 41.733 0.0282651C44.0198 0.139766 49.8795 1.51838 52.8536 6.85457C60.8534 21.2113 61.6321 55.5816 63.7949 59.0842Z" fill="#DCBD94"/>
<path d="M53.9676 44.87C53.9496 39.9 59.994 70.1193 63.3221 71.3975C66.3503 72.5613 45.8798 72.1332 41.8202 72.4085C37.7587 72.6832 53.9863 50.0809 53.9676 44.87Z" fill="url(#paint17_linear_20_449)"/>
<path d="M36.1746 41.6695C36.1573 36.6995 38.4928 71.1297 41.8203 72.4085C44.8484 73.5717 23.7532 69.4834 19.6937 69.7594C15.6328 70.034 36.194 46.8791 36.1746 41.6695Z" fill="url(#paint18_linear_20_449)"/>
<path d="M20.7644 44.9774C21.6725 40.0466 17.9482 68.1412 21.2778 69.4207C24.3053 70.5839 8.92972 66.9347 9.6191 64.6627C10.8352 60.6542 19.8217 50.0981 20.7644 44.9774Z" fill="url(#paint19_linear_20_449)"/>
<path opacity="0.7" d="M26.302 6.60196C26.302 6.60196 29.8202 -0.263567 37.1987 0.00898902C44.5784 0.280857 50.2708 0.954677 52.8529 6.63363C55.4357 12.3133 56.5504 28.4464 56.5384 25.343C56.5338 24.049 49.388 16.7237 47.2572 14.8489C45.1265 12.974 45.4658 23.9561 46.4199 26.2584C48.432 31.1066 35.5086 16.6019 35.5086 12.5177C35.5086 8.45549 25.2806 35.685 25.59 33.0048C25.832 30.8967 27.9941 12.5686 27.9941 12.5686C27.9941 12.5686 21.3798 23.1611 21.6824 22.2409C21.9851 21.3193 26.302 6.60196 26.302 6.60196Z" fill="url(#paint20_linear_20_449)"/>
<path d="M82.0913 100.269C82.0913 100.269 83.4487 104.738 83.6801 105.232C83.9127 105.725 92.5779 100.052 91.5632 96.3681C90.5491 92.683 87.1423 93.5799 87.1423 93.5799L82.0913 100.269Z" fill="#FAE7CB"/>
<path d="M40.9249 264.948C40.9249 264.948 46.9406 268.958 64.1989 261.032L40.9249 264.948Z" fill="url(#paint21_linear_20_449)"/>
<path d="M19.0403 258.273C19.0403 258.273 25.0566 262.283 42.3156 254.357L19.0403 258.273Z" fill="url(#paint22_linear_20_449)"/>
<path d="M38.6095 137.642C38.6095 137.642 53.8497 178.058 54.1884 180.734C54.6671 184.526 42.4557 253.787 43.7505 256.079C45.3226 258.856 49.9035 257.59 49.9035 257.59L63.1289 181.628C63.1289 181.628 61.6942 178.345 56.0405 168.311C50.9995 159.363 51.9983 161.131 38.6095 137.642Z" fill="url(#paint23_linear_20_449)"/>
<path d="M47.808 119.37C47.808 119.37 55.4097 140.628 57.4139 143.184C59.4173 145.741 58.9406 143.884 58.9406 143.884C58.9406 143.884 53.117 116.428 51.3322 117.728C49.5474 119.027 47.808 119.37 47.808 119.37Z" fill="url(#paint24_linear_20_449)"/>
<path d="M29.6136 138.652C29.6136 138.652 39.3515 136.512 39.5488 138.711C40.4768 149.058 42.3676 179.525 43.4977 184.642C44.6564 189.887 36.864 251.011 33.4718 251.011C30.0789 251.011 27.5588 249.746 27.5588 249.746C27.5588 249.746 24.7666 153.519 25.5147 151.953C29.1135 144.419 29.6136 138.652 29.6136 138.652Z" fill="url(#paint25_linear_20_449)"/>
<path d="M136.619 132.26V134.423H143.458V132.123L136.619 132.26Z" fill="#917272"/>
<defs>
<linearGradient id="paint0_linear_20_449" x1="128.433" y1="145.291" x2="151.258" y2="145.291" gradientUnits="userSpaceOnUse">
<stop stop-color="#F6DEE0"/>
<stop offset="0.9898" stop-color="#ECB9BD"/>
</linearGradient>
<linearGradient id="paint1_linear_20_449" x1="125.411" y1="224.058" x2="135.601" y2="224.058" gradientUnits="userSpaceOnUse">
<stop offset="0.449" stop-color="#FAE7CB"/>
<stop offset="0.5818" stop-color="#F7E4C7"/>
<stop offset="0.6743" stop-color="#F1DCBE"/>
<stop offset="0.7547" stop-color="#E8D0AF"/>
<stop offset="0.8276" stop-color="#DDC19D"/>
<stop offset="0.8929" stop-color="#CFAF89"/>
</linearGradient>
<linearGradient id="paint2_linear_20_449" x1="106.48" y1="192.134" x2="169.135" y2="192.134" gradientUnits="userSpaceOnUse">
<stop stop-color="white" stop-opacity="0.2"/>
<stop offset="0.0506" stop-color="#FBEFEF" stop-opacity="0.2405"/>
<stop offset="0.1809" stop-color="#F1CACB" stop-opacity="0.3447"/>
<stop offset="0.3179" stop-color="#EAACAD" stop-opacity="0.4543"/>
<stop offset="0.4615" stop-color="#E49596" stop-opacity="0.5692"/>
<stop offset="0.6145" stop-color="#DF8486" stop-opacity="0.6916"/>
<stop offset="0.7836" stop-color="#DD7A7C" stop-opacity="0.8269"/>
<stop offset="1" stop-color="#DC7779"/>
</linearGradient>
<linearGradient id="paint3_linear_20_449" x1="140.466" y1="128.631" x2="154.567" y2="128.631" gradientUnits="userSpaceOnUse">
<stop stop-color="#AC8B8B"/>
<stop offset="0.0153" stop-color="#E8AAAD"/>
<stop offset="1" stop-color="#DD7F82"/>
</linearGradient>
<linearGradient id="paint4_linear_20_449" x1="126.776" y1="171.287" x2="169.361" y2="171.287" gradientUnits="userSpaceOnUse">
<stop stop-color="white"/>
<stop offset="0.0382" stop-color="#FCF3F3"/>
<stop offset="0.1759" stop-color="#F2CDCE"/>
<stop offset="0.3196" stop-color="#EAAEAF"/>
<stop offset="0.4686" stop-color="#E49697"/>
<stop offset="0.6253" stop-color="#DF8486"/>
<stop offset="0.7947" stop-color="#DD7A7C"/>
<stop offset="1" stop-color="#DC7779"/>
</linearGradient>
<linearGradient id="paint5_linear_20_449" x1="149.243" y1="137.37" x2="177.973" y2="137.37" gradientUnits="userSpaceOnUse">
<stop stop-color="#EBB5B6"/>
<stop offset="0.5457" stop-color="#F0C9CA"/>
<stop offset="1" stop-color="#F6DEE0"/>
</linearGradient>
<linearGradient id="paint6_linear_20_449" x1="124.858" y1="81.1075" x2="150.757" y2="81.1075" gradientUnits="userSpaceOnUse">
<stop stop-color="#AC8B8B"/>
<stop offset="0.1511" stop-color="#907474"/>
<stop offset="0.335" stop-color="#796262"/>
<stop offset="0.5295" stop-color="#6A5656"/>
<stop offset="0.7399" stop-color="#624F4F"/>
<stop offset="0.9949" stop-color="#5F4D4D"/>
</linearGradient>
<linearGradient id="paint7_linear_20_449" x1="138.463" y1="226.422" x2="148.455" y2="226.422" gradientUnits="userSpaceOnUse">
<stop offset="0.449" stop-color="#FAE7CB"/>
<stop offset="0.5818" stop-color="#F7E4C7"/>
<stop offset="0.6743" stop-color="#F1DCBE"/>
<stop offset="0.7547" stop-color="#E8D0AF"/>
<stop offset="0.8276" stop-color="#DDC19D"/>
<stop offset="0.8929" stop-color="#CFAF89"/>
</linearGradient>
<linearGradient id="paint8_linear_20_449" x1="143.06" y1="259.964" x2="147.067" y2="259.964" gradientUnits="userSpaceOnUse">
<stop stop-color="#E8AAAD"/>
<stop offset="0.229" stop-color="#E7A8AC"/>
<stop offset="0.3733" stop-color="#E6A2A8"/>
<stop offset="0.494" stop-color="#E398A2"/>
<stop offset="0.6013" stop-color="#E08B9A"/>
<stop offset="0.6582" stop-color="#DE8295"/>
</linearGradient>
<linearGradient id="paint9_linear_20_449" x1="129.31" y1="261.809" x2="132.551" y2="261.809" gradientUnits="userSpaceOnUse">
<stop stop-color="#E8AAAD"/>
<stop offset="0.2174" stop-color="#E7A8AC"/>
<stop offset="0.3543" stop-color="#E6A2A8"/>
<stop offset="0.469" stop-color="#E398A2"/>
<stop offset="0.5708" stop-color="#E08B9A"/>
<stop offset="0.648" stop-color="#DD7F93"/>
</linearGradient>
<linearGradient id="paint10_linear_20_449" x1="174.055" y1="164.901" x2="175.35" y2="164.901" gradientUnits="userSpaceOnUse">
<stop offset="0.352" stop-color="#F1C692"/>
<stop offset="0.4205" stop-color="#F4CFA0"/>
<stop offset="0.5239" stop-color="#F7D9B2"/>
<stop offset="0.6403" stop-color="#F9E1C0"/>
<stop offset="0.7793" stop-color="#FAE5C8"/>
<stop offset="1" stop-color="#FAE7CB"/>
</linearGradient>
<linearGradient id="paint11_linear_20_449" x1="111.403" y1="124.925" x2="123.244" y2="124.925" gradientUnits="userSpaceOnUse">
<stop offset="0.0867" stop-color="#F6DEE0"/>
<stop offset="0.3692" stop-color="#F5DCDD"/>
<stop offset="0.5471" stop-color="#F3D4D5"/>
<stop offset="0.696" stop-color="#EFC7C9"/>
<stop offset="0.8283" stop-color="#EBB5B8"/>
<stop offset="0.9286" stop-color="#E6A5A8"/>
</linearGradient>
<linearGradient id="paint12_linear_20_449" x1="93.3453" y1="118.686" x2="110.173" y2="118.686" gradientUnits="userSpaceOnUse">
<stop offset="0.1429" stop-color="#F6DEE0"/>
<stop offset="0.3945" stop-color="#F5DADC"/>
<stop offset="0.644" stop-color="#F2D0D1"/>
<stop offset="0.8919" stop-color="#EDBEC0"/>
<stop offset="1" stop-color="#EBB5B7"/>
</linearGradient>
<linearGradient id="paint13_linear_20_449" x1="54.3104" y1="88.5753" x2="61.2822" y2="88.5753" gradientUnits="userSpaceOnUse">
<stop offset="0.0102" stop-color="#7C69AB"/>
<stop offset="0.898" stop-color="#AC96C6"/>
</linearGradient>
<linearGradient id="paint14_linear_20_449" x1="36.9041" y1="93.4837" x2="54.6861" y2="93.4837" gradientUnits="userSpaceOnUse">
<stop offset="0.2245" stop-color="#AC96C6"/>
<stop offset="0.2419" stop-color="#AB94C5"/>
<stop offset="0.7494" stop-color="#8772B0"/>
<stop offset="0.9898" stop-color="#7C69AB"/>
</linearGradient>
<linearGradient id="paint15_linear_20_449" x1="5.65108" y1="96.8373" x2="22.7029" y2="96.8373" gradientUnits="userSpaceOnUse">
<stop offset="0.0102" stop-color="#7C69AB"/>
<stop offset="0.898" stop-color="#AC96C6"/>
</linearGradient>
<linearGradient id="paint16_linear_20_449" x1="7.71624" y1="81.4587" x2="21.8811" y2="81.4587" gradientUnits="userSpaceOnUse">
<stop offset="0.3776" stop-color="#AC96C6"/>
<stop offset="1" stop-color="#7C69AB"/>
</linearGradient>
<linearGradient id="paint17_linear_20_449" x1="41.1677" y1="58.3646" x2="63.6267" y2="58.3646" gradientUnits="userSpaceOnUse">
<stop offset="0.1276" stop-color="#DCBE95"/>
<stop offset="0.5204" stop-color="#DCBE95"/>
<stop offset="0.5521" stop-color="#DABC93"/>
<stop offset="0.8196" stop-color="#C9AA83"/>
<stop offset="0.9898" stop-color="#C3A47D"/>
</linearGradient>
<linearGradient id="paint18_linear_20_449" x1="19.1626" y1="56.8979" x2="42.1167" y2="56.8979" gradientUnits="userSpaceOnUse">
<stop offset="0.1276" stop-color="#DCBE95"/>
<stop offset="0.5204" stop-color="#DCBE95"/>
<stop offset="0.5521" stop-color="#DABC93"/>
<stop offset="0.8196" stop-color="#C9AA83"/>
<stop offset="0.9898" stop-color="#C3A47D"/>
</linearGradient>
<linearGradient id="paint19_linear_20_449" x1="9.5963" y1="57.0209" x2="21.6728" y2="57.0209" gradientUnits="userSpaceOnUse">
<stop offset="0.1276" stop-color="#DCBE95"/>
<stop offset="0.4031" stop-color="#DCBE95"/>
<stop offset="0.4427" stop-color="#DABC93"/>
<stop offset="0.777" stop-color="#C9AA83"/>
<stop offset="0.9898" stop-color="#C3A47D"/>
</linearGradient>
<linearGradient id="paint20_linear_20_449" x1="21.6731" y1="16.5963" x2="56.5387" y2="16.5963" gradientUnits="userSpaceOnUse">
<stop offset="0.2143" stop-color="#FAE7CB"/>
<stop offset="0.2841" stop-color="#F5E1C3"/>
<stop offset="0.6729" stop-color="#E3C7A1"/>
<stop offset="0.8776" stop-color="#DCBE95"/>
</linearGradient>
<linearGradient id="paint21_linear_20_449" x1="40.9253" y1="263.497" x2="64.1994" y2="263.497" gradientUnits="userSpaceOnUse">
<stop offset="0.1327" stop-color="#AC96C6"/>
<stop offset="0.9949" stop-color="#8470AF"/>
</linearGradient>
<linearGradient id="paint22_linear_20_449" x1="19.0405" y1="256.821" x2="42.3159" y2="256.821" gradientUnits="userSpaceOnUse">
<stop offset="0.1327" stop-color="#AC96C6"/>
<stop offset="0.9949" stop-color="#8470AF"/>
</linearGradient>
<linearGradient id="paint23_linear_20_449" x1="38.6094" y1="197.76" x2="63.129" y2="197.76" gradientUnits="userSpaceOnUse">
<stop offset="0.0051" stop-color="#AC96C6"/>
<stop offset="0.8673" stop-color="#D9C8E2"/>
</linearGradient>
<linearGradient id="paint24_linear_20_449" x1="47.8078" y1="131.109" x2="58.9901" y2="131.109" gradientUnits="userSpaceOnUse">
<stop offset="0.0051" stop-color="#AC96C6"/>
<stop offset="0.8673" stop-color="#D9C8E2"/>
</linearGradient>
<linearGradient id="paint25_linear_20_449" x1="25.3869" y1="194.365" x2="43.6142" y2="194.365" gradientUnits="userSpaceOnUse">
<stop offset="0.1327" stop-color="#D9C8E2"/>
<stop offset="0.457" stop-color="#D8C7E1"/>
<stop offset="0.8602" stop-color="#AC96C6"/>
</linearGradient>
</defs>
</svg>
