<svg width="142" height="324" viewBox="0 0 142 324" fill="none" xmlns="http://www.w3.org/2000/svg">
<path d="M69.5506 257.073C69.7207 258.062 74.8376 266.278 76.1254 274.131C77.9016 285.012 76.1413 296.542 77.8882 299.21C80.8971 303.803 85.0849 300.359 85.0849 300.359C85.0849 300.359 86.6469 285.702 88.1979 274.281C89.1686 267.124 84.1864 260.181 84.5414 256.833C85.3652 249.118 69.5506 257.073 69.5506 257.073Z" fill="#FAE7CB"/>
<path d="M78.9483 265.185H74.9907L78.9348 293.186L82.8839 293.859L78.9483 265.185Z" fill="url(#paint0_linear_20_285)"/>
<path d="M85.9393 291.072C85.9393 291.072 81.5043 292.107 78.7341 292.206C75.9638 292.31 73.3295 306.959 72.5791 310.339C71.8262 313.719 83.1973 320.481 85.4068 314.094C87.6213 307.711 85.9393 291.072 85.9393 291.072Z" fill="#5F4D4D"/>
<path d="M58.9605 264.949C57.5038 265.676 66.3274 284.051 70.4075 297.598C72.9757 306.126 70.8139 311.487 71.9768 313.263C74.9845 317.854 80.3279 304.73 80.3279 304.73C83.0907 312.345 70.5176 265.114 73.2511 262.33C75.8341 259.699 58.9605 264.949 58.9605 264.949Z" fill="#FAE7CB"/>
<path d="M65.4803 265.185L58.8026 268.027L72.5301 300.144L78.9348 301.064L65.4803 265.185Z" fill="url(#paint1_linear_20_285)"/>
<path d="M134.354 183.378C134.354 183.378 108.06 182.042 105.426 177.36C102.793 172.679 90.0794 210.09 93.0871 213.437C96.096 216.783 126.027 223.214 129.035 219.077C132.043 214.939 134.354 183.378 134.354 183.378Z" fill="#619269"/>
<path d="M87.15 47.6781H71.6084L61.0257 60.6504C61.0257 60.6504 84.1448 60.6406 89.6595 58.7675C95.173 56.8932 89.6583 65.2059 87.15 47.6781Z" fill="#FAE7CB"/>
<path d="M77.5834 44.3257H69.7134L64.4484 54.6533L73.9881 56.3467L77.5834 44.3257Z" fill="url(#paint2_linear_20_285)"/>
<path d="M76.0617 55.4162C93.065 55.9676 103.134 57.8994 106.493 59.8984C112.405 63.4196 113.12 68.7039 116.63 79.1477C120.139 89.5927 119.314 102.363 121.125 108.551C122.209 112.258 119.274 156.115 120.874 157.628C122.059 158.749 112.816 159.679 111.848 158.331C109.729 155.385 115.456 123.847 110.88 111.806C109.216 107.424 102.322 63.0687 99.3143 91.5245C96.3053 119.979 92.8557 134.35 91.5593 138.068C85.8977 154.336 82.0404 139.288 71.9327 141.156C62.9072 142.825 54.3578 126.525 52.4322 116.812C50.536 107.243 53.4972 79.2418 50.9706 77.9067C48.4403 76.5716 39.1001 100.972 37.5957 109.539C36.0912 118.105 67.8319 127.26 67.8319 127.26L64.8242 137.025C64.8242 137.025 26.7657 118.836 26.6115 115.31C26.3556 109.55 34.9001 69.237 41.1702 63.729C56.751 50.0378 60.5691 54.9101 76.0617 55.4162Z" fill="#7AB385"/>
<path d="M92.8533 132.697C92.8533 132.697 98.5112 147.394 102.142 165.225C108.935 198.595 115.513 246.3 113.065 252.873C111.587 256.846 92.6929 269.392 69.0499 269.402C44.572 269.409 36.2332 263.38 34.703 262.134C31.6941 259.683 51.1187 133.674 59.8321 133.701C68.5504 133.725 92.8533 132.697 92.8533 132.697Z" fill="#B8D8BB"/>
<path d="M79.2519 0.780042C65.9627 0.780042 60.4479 7.34685 57.9409 14.5091C55.3959 21.7838 52.9268 39.16 46.9102 45.437C40.8935 51.7128 69.9754 50.3594 73.4838 49.8593C76.9934 49.3605 100.663 51.3289 105.679 48.825C110.691 46.3198 99.6105 16.892 96.0471 10.5661C89.4294 -1.18107 85.6003 0.780042 79.2519 0.780042Z" fill="#362227"/>
<path d="M80.3805 297.833C80.3805 297.833 75.9455 298.867 73.1753 298.971C70.405 299.072 67.7719 313.72 67.0191 317.101C66.2687 320.482 77.6385 327.241 79.848 320.855C82.0613 314.469 80.3805 297.833 80.3805 297.833Z" fill="#917272"/>
<path opacity="0.4" d="M84.9943 2.28634C78.9899 1.17007 69.7709 1.66157 65.2857 7.42632C60.0929 14.0971 47.8368 39.2089 63.2622 21.8877C73.6074 10.269 75.3065 29.8496 78.3044 26.0606C79.8395 24.1178 84.1913 12.6861 89.4551 22.6384C91.2105 25.9518 89.5395 13.2473 89.5395 13.2473L99.422 29.0206C99.422 29.0206 98.5235 13.6104 92.1531 7.4251C83.0651 -1.39992 84.9943 2.28634 84.9943 2.28634Z" fill="url(#paint3_linear_20_285)"/>
<path d="M50.2716 73.6801C50.2716 73.6801 49.8358 127.583 57.8148 127.481C65.7961 127.383 70.3181 128.469 70.3181 128.469C70.3181 128.469 65.6321 121.259 63.7518 114.153C61.8716 107.05 73.152 101.859 71.6475 101.077C70.1431 100.291 58.8626 96.4518 58.1098 94.8012C57.3582 93.1531 68.2628 86.5031 66.0067 86.4469C63.7506 86.3931 55.047 77.5253 55.047 77.5253L50.2716 73.6801Z" fill="url(#paint4_linear_20_285)"/>
<path d="M97.5234 103.658C97.5234 103.658 90.771 122.83 87.0117 125.544C83.2499 128.259 93.9416 125.544 93.9416 125.544L97.5234 103.658Z" fill="url(#paint5_linear_20_285)"/>
<path d="M77.5834 109.385C77.5834 109.385 75.5158 116.564 73.9881 122.547C72.4751 128.469 79.1148 128.331 80.9938 126.754C82.8741 125.174 76.0532 112.029 77.5834 107.898" fill="url(#paint6_linear_20_285)"/>
<path d="M50.2679 75.4064C50.2679 75.4064 27.0497 102.814 34.3884 109.385C41.7271 115.955 38.209 112.358 38.209 112.358L50.2679 75.4064Z" fill="url(#paint7_linear_20_285)"/>
<path d="M38.2102 112.357C38.2102 112.357 32.1593 110.144 34.3896 113.34C36.6213 116.535 53.6747 124.741 55.7435 126.111C57.8148 127.48 55.7435 123.097 55.7435 123.097L38.2102 112.357Z" fill="url(#paint8_linear_20_285)"/>
<path d="M102.34 81.7507C102.34 81.7507 111.528 105.573 110.881 111.806C110.237 118.037 113.112 125.077 112.96 131.71C112.81 138.342 113.612 143.434 112.968 148.574C112.321 153.714 114.749 153.978 116.255 151.594C117.76 149.211 114.303 124.768 115.594 115.205C116.879 105.645 103.468 83.4013 102.34 81.7507Z" fill="url(#paint9_linear_20_285)"/>
<path d="M117.309 149.024C116.587 149.955 120.276 152.37 115.779 153.043C111.283 153.715 120.388 153.715 120.388 153.715L117.309 149.024Z" fill="url(#paint10_linear_20_285)"/>
<path d="M97.5234 57.3015L103.114 58.5486C103.114 58.5486 52.682 59.7542 49.2201 59.2602C45.2796 58.6941 56.6641 54.1642 56.6641 54.1642L97.5234 57.3015Z" fill="url(#paint11_linear_20_285)"/>
<path d="M69.1735 134.072C69.1735 134.072 58.7769 134.747 57.4181 134.072C56.0569 133.398 33.4238 255.049 32.5767 258.331C31.7308 261.615 38.3473 268.053 48.0131 268.027C57.6777 267.999 57.9115 261.989 50.8384 251.849C43.7653 241.709 59.3657 236.45 66.6077 234.949C73.8497 233.446 55.3665 215.299 55.3665 215.299C55.3665 215.299 65.0053 203.341 66.6077 203.181C68.2089 203.023 58.4232 177.02 58.4232 177.02L72.5424 165.705L66.6077 146.685L69.1735 134.072Z" fill="url(#paint12_linear_20_285)"/>
<path d="M65.4803 133.594C60.7025 142.241 52.147 167.407 52.1458 167.488C51.8239 177.848 56.6629 166.365 60.055 166.382C63.4483 166.394 65.4803 133.594 65.4803 133.594Z" fill="url(#paint13_linear_20_285)"/>
<path d="M75.091 132.654C75.091 132.654 68.7268 157.891 68.6166 168.133C68.5076 178.376 71.4248 171.057 74.8144 171.002C78.2065 170.947 75.091 132.654 75.091 132.654Z" fill="url(#paint14_linear_20_285)"/>
<path d="M86.7142 133.188C86.7142 133.188 89.7623 156.135 89.5175 166.365C89.2776 176.597 94.4189 168.333 96.9933 168.35C99.5689 168.363 86.7142 133.188 86.7142 133.188Z" fill="url(#paint15_linear_20_285)"/>
<path d="M73.1752 298.97L67.019 317.099C67.019 317.099 68.406 320.304 69.7636 321.174C71.1236 322.041 73.1752 298.97 73.1752 298.97Z" fill="url(#paint16_linear_20_285)"/>
<path d="M125.341 183.838L126.247 220.052C126.247 220.052 141.75 215.788 140.884 209.534C140.018 203.281 134.707 182.864 134.707 182.864L125.341 183.838Z" fill="#4A704F"/>
<path d="M120.388 153.715C120.388 153.715 111.236 155.579 111.283 153.715C111.328 151.85 109.23 163.448 111.283 168.35C113.333 173.251 124.24 174.415 124.24 171.39C124.24 168.368 120.388 153.715 120.388 153.715Z" fill="#FAE7CB"/>
<path d="M116.641 154.322C116.641 154.322 111.437 154.926 111.361 154.322C111.284 153.715 109.54 163.948 110.805 166.783C112.067 169.616 113.365 171.159 115.156 171.814C116.944 172.469 113.577 155.969 116.641 154.322Z" fill="url(#paint17_linear_20_285)"/>
<path d="M129.187 183.664C128.623 182.534 126.589 162.171 119.914 163.109C113.238 164.052 108.898 176.752 106.959 178.712C105.02 180.673 112.381 180.393 112.381 180.393C112.381 180.393 114.594 167.053 117.771 166.867C120.947 166.68 125.341 183.839 125.341 183.839" fill="#4A704F"/>
<defs>
<linearGradient id="paint0_linear_20_285" x1="82.8839" y1="279.522" x2="74.9904" y2="279.522" gradientUnits="userSpaceOnUse">
<stop offset="0.5321" stop-color="#FAE7CB"/>
<stop offset="0.979" stop-color="#C19B6D"/>
</linearGradient>
<linearGradient id="paint1_linear_20_285" x1="78.9353" y1="283.125" x2="58.8028" y2="283.125" gradientUnits="userSpaceOnUse">
<stop offset="0.5321" stop-color="#FAE7CB"/>
<stop offset="0.979" stop-color="#C19B6D"/>
</linearGradient>
<linearGradient id="paint2_linear_20_285" x1="77.5833" y1="50.336" x2="64.4489" y2="50.336" gradientUnits="userSpaceOnUse">
<stop offset="0.1128" stop-color="#FAE7CB"/>
<stop offset="0.979" stop-color="#C19B6D"/>
</linearGradient>
<linearGradient id="paint3_linear_20_285" x1="99.4229" y1="15.2723" x2="55.7437" y2="15.2723" gradientUnits="userSpaceOnUse">
<stop offset="0.0859" stop-color="#9B7548"/>
<stop offset="0.9844" stop-color="#362227"/>
</linearGradient>
<linearGradient id="paint4_linear_20_285" x1="71.7866" y1="101.074" x2="50.2686" y2="101.074" gradientUnits="userSpaceOnUse">
<stop offset="0.0913" stop-color="#7AB385"/>
<stop offset="0.979" stop-color="#619269"/>
</linearGradient>
<linearGradient id="paint5_linear_20_285" x1="97.5234" y1="115.205" x2="86.2097" y2="115.205" gradientUnits="userSpaceOnUse">
<stop offset="0.0913" stop-color="#7AB385"/>
<stop offset="0.979" stop-color="#619269"/>
</linearGradient>
<linearGradient id="paint6_linear_20_285" x1="81.3245" y1="117.79" x2="73.7663" y2="117.79" gradientUnits="userSpaceOnUse">
<stop offset="0.0913" stop-color="#7AB385"/>
<stop offset="0.979" stop-color="#619269"/>
</linearGradient>
<linearGradient id="paint7_linear_20_285" x1="50.2686" y1="94.3732" x2="32.9548" y2="94.3732" gradientUnits="userSpaceOnUse">
<stop offset="0.021" stop-color="#619269"/>
<stop offset="0.9087" stop-color="#7AB385"/>
</linearGradient>
<linearGradient id="paint8_linear_20_285" x1="56.6642" y1="118.994" x2="33.8957" y2="118.994" gradientUnits="userSpaceOnUse">
<stop offset="0.021" stop-color="#619269"/>
<stop offset="0.9087" stop-color="#7AB385"/>
</linearGradient>
<linearGradient id="paint9_linear_20_285" x1="116.64" y1="117.397" x2="102.34" y2="117.397" gradientUnits="userSpaceOnUse">
<stop offset="0.0913" stop-color="#7AB385"/>
<stop offset="0.979" stop-color="#619269"/>
</linearGradient>
<linearGradient id="paint10_linear_20_285" x1="120.387" y1="151.369" x2="114.532" y2="151.369" gradientUnits="userSpaceOnUse">
<stop offset="0.021" stop-color="#619269"/>
<stop offset="0.9087" stop-color="#7AB385"/>
</linearGradient>
<linearGradient id="paint11_linear_20_285" x1="103.115" y1="56.7717" x2="48.3916" y2="56.7717" gradientUnits="userSpaceOnUse">
<stop offset="0.0913" stop-color="#7AB385"/>
<stop offset="0.979" stop-color="#619269"/>
</linearGradient>
<linearGradient id="paint12_linear_20_285" x1="72.5421" y1="201.048" x2="32.5041" y2="201.048" gradientUnits="userSpaceOnUse">
<stop offset="0.4032" stop-color="#B8D8BB"/>
<stop offset="0.9302" stop-color="#73B47B"/>
</linearGradient>
<linearGradient id="paint13_linear_20_285" x1="58.8065" y1="133.594" x2="58.8065" y2="171.819" gradientUnits="userSpaceOnUse">
<stop offset="0.0698" stop-color="#73B47B"/>
<stop offset="1" stop-color="#B8D8BB"/>
</linearGradient>
<linearGradient id="paint14_linear_20_285" x1="72.5038" y1="132.681" x2="72.9111" y2="173.556" gradientUnits="userSpaceOnUse">
<stop stop-color="#78B981"/>
<stop offset="0.8602" stop-color="#B5D7B8"/>
</linearGradient>
<linearGradient id="paint15_linear_20_285" x1="92.0249" y1="171.486" x2="92.0249" y2="133.189" gradientUnits="userSpaceOnUse">
<stop stop-color="#B8D8BB"/>
<stop offset="0.9302" stop-color="#73B47B"/>
</linearGradient>
<linearGradient id="paint16_linear_20_285" x1="73.1756" y1="310.085" x2="67.019" y2="310.085" gradientUnits="userSpaceOnUse">
<stop offset="0.0483" stop-color="#917272"/>
<stop offset="0.9629" stop-color="#5F4D4D"/>
</linearGradient>
<linearGradient id="paint17_linear_20_285" x1="116.641" y1="163.065" x2="110.346" y2="163.065" gradientUnits="userSpaceOnUse">
<stop offset="0.3978" stop-color="#FAE7CB"/>
<stop offset="0.9195" stop-color="#BAA080"/>
</linearGradient>
</defs>
</svg>
