<?xml version="1.0" encoding="utf-8"?>
<!-- Generator: Adobe Illustrator 16.0.0, SVG Export Plug-In . SVG Version: 6.00 Build 0)  -->
<!DOCTYPE svg PUBLIC "-//W3C//DTD SVG 1.1//EN" "http://www.w3.org/Graphics/SVG/1.1/DTD/svg11.dtd">
<svg version="1.1" id="Layer_1" xmlns="http://www.w3.org/2000/svg" xmlns:xlink="http://www.w3.org/1999/xlink" x="0px" y="0px"
	 width="1920px" height="1080px" viewBox="0 0 1920 1080" enable-background="new 0 0 1920 1080" xml:space="preserve">
<g>
	<g>
		<defs>
			<rect id="SVGID_2_" x="0.5" y="0.5" width="1919" height="1079"/>
		</defs>
		<clipPath id="SVGID_3_">
			<use xlink:href="#SVGID_2_"  overflow="visible"/>
		</clipPath>
	</g>
	<g>
		
			<rect id="SVGID_1_" x="0.5" y="0.5" fill="none" stroke="#3E3E3E" stroke-width="0.5" stroke-miterlimit="10" width="1919" height="1079"/>
	</g>
</g>
<line fill="none" stroke="#3E3E3E" stroke-width="0.5" stroke-miterlimit="10" x1="1917.761" y1="3.085" x2="0.5" y2="540.5"/>
<line fill="none" stroke="#3E3E3E" stroke-width="0.5" stroke-miterlimit="10" x1="0.5" y1="540.5" x2="1920" y2="1079"/>
<line fill="none" stroke="#3E3E3E" stroke-width="0.5" stroke-miterlimit="10" x1="0" y1="0" x2="1919.5" y2="540.5"/>
<line fill="none" stroke="#3E3E3E" stroke-width="0.5" stroke-miterlimit="10" x1="1919.5" y1="540.5" x2="0" y2="1080"/>
<line fill="none" stroke="#3E3E3E" stroke-width="0.5" stroke-miterlimit="10" x1="1919.5" y1="0.5" x2="1439.54" y2="1079.5"/>
<line fill="none" stroke="#3E3E3E" stroke-width="0.5" stroke-miterlimit="10" x1="1919.5" y1="1079.5" x2="1439.54" y2="0.5"/>
<line fill="none" stroke="#3E3E3E" stroke-width="0.5" stroke-miterlimit="10" x1="1679.521" y1="1079" x2="1679.521" y2="3.085"/>
<line fill="none" stroke="#3E3E3E" stroke-width="0.5" stroke-miterlimit="10" x1="480.621" y1="0.5" x2="0" y2="1080"/>
<line fill="none" stroke="#3E3E3E" stroke-width="0.5" stroke-miterlimit="10" x1="0" y1="0" x2="480.621" y2="1079.5"/>
<line fill="none" stroke="#3E3E3E" stroke-width="0.5" stroke-miterlimit="10" x1="240.311" y1="1079" x2="240.311" y2="0"/>
<line fill="none" stroke="#3E3E3E" stroke-width="0.5" stroke-miterlimit="10" x1="0" y1="67.667" x2="1917.761" y2="67.667"/>
<line fill="none" stroke="#3E3E3E" stroke-width="0.5" stroke-miterlimit="10" x1="1917.761" y1="1011.535" x2="0" y2="1011.535"/>
<line fill="none" stroke="#3E3E3E" stroke-width="0.5" stroke-miterlimit="10" x1="121.883" y1="1079" x2="121.882" y2="3.085"/>
<line fill="none" stroke="#3E3E3E" stroke-width="0.5" stroke-miterlimit="10" x1="60.945" y1="1079" x2="60.945" y2="0.5"/>
<line fill="none" stroke="#3E3E3E" stroke-width="0.5" stroke-miterlimit="10" x1="1859.896" y1="1079" x2="1859.896" y2="3.085"/>
<line fill="none" stroke="#3E3E3E" stroke-width="0.5" stroke-miterlimit="10" x1="1799.951" y1="1079" x2="1799.951" y2="0.5"/>
<line fill="none" stroke="#3E3E3E" stroke-width="0.5" stroke-miterlimit="10" x1="384.646" y1="1079" x2="384.646" y2="0.5"/>
<line fill="none" stroke="#3E3E3E" stroke-width="0.5" stroke-miterlimit="10" x1="1535.804" y1="1079" x2="1535.804" y2="0"/>
<line fill="none" stroke="#3E3E3E" stroke-width="0.5" stroke-miterlimit="10" x1="1151.79" y1="1080" x2="1151.79" y2="3.085"/>
<line fill="none" stroke="#3E3E3E" stroke-width="0.5" stroke-miterlimit="10" x1="768.991" y1="1079" x2="768.991" y2="0"/>
<rect x="0.5" y="0.5" fill="none" stroke="#3E3E3E" stroke-width="0.5" stroke-miterlimit="10" width="1919" height="1079"/>
<path fill="none" stroke="#3E3E3E" stroke-width="0.5" d="M0,0l1920,1079"/>
<path fill="none" stroke="#3E3E3E" stroke-width="0.5" d="M0,1080L1917.172,3.085"/>
<path fill="none" stroke="#3E3E3E" stroke-width="0.5" d="M960.5,0.999L1919,540.5"/>
<path fill="none" stroke="#3E3E3E" stroke-width="0.5" d="M960.007,1078.91L1917.761,3.085"/>
<path fill="none" stroke="#3E3E3E" stroke-width="0.5" d="M0,0l960.5,1079"/>
<path fill="none" stroke="#3E3E3E" stroke-width="0.5" d="M0,1080L960.5,0.999"/>
<path fill="none" stroke="#3E3E3E" stroke-width="0.5" d="M1,540.5L960.5,1079"/>
<path fill="none" stroke="#3E3E3E" stroke-width="0.5" d="M1,540.5L960.5,0.999"/>
<path fill="none" stroke="#3E3E3E" stroke-width="0.5" d="M960.5,1.998L1920,1079"/>
<path fill="none" stroke="#3E3E3E" stroke-width="0.5" d="M960.5,1079L1919,540.5"/>
<path fill="none" stroke="#3E3E3E" stroke-width="0.5" d="M1600.007,0.5v1079"/>
<path fill="none" stroke="#3E3E3E" stroke-width="0.5" d="M1439.54,0.5v1079"/>
<path fill="none" stroke="#3E3E3E" stroke-width="0.5" d="M1280.173,0.5v1079"/>
<path fill="none" stroke="#3E3E3E" stroke-width="0.5" d="M960.5,0.5v1079"/>
<path fill="none" stroke="#3E3E3E" stroke-width="0.5" d="M640.506,0.5v1079"/>
<path fill="none" stroke="#3E3E3E" stroke-width="0.5" d="M480.621,0.5v1079"/>
<path fill="none" stroke="#3E3E3E" stroke-width="0.5" d="M320.704,0.5v1079"/>
<path fill="none" stroke="#3E3E3E" stroke-width="0.5" d="M0.5,809.926h1919"/>
<path fill="none" stroke="#3E3E3E" stroke-width="0.5" d="M0.5,720.009h1919"/>
<path fill="none" stroke="#3E3E3E" stroke-width="0.5" d="M0.5,540.5h1919"/>
<path fill="none" stroke="#3E3E3E" stroke-width="0.5" d="M0.5,360.342h1919"/>
<path fill="none" stroke="#3E3E3E" stroke-width="0.5" d="M0.5,270.25h1919"/>
</svg>
